<?xml version="1.0" encoding="UTF-8"?>
<svg width="54px" height="54px" viewBox="0 0 54 54" version="1.1" xmlns="http://www.w3.org/2000/svg" xmlns:xlink="http://www.w3.org/1999/xlink">
    <!-- Generator: Sketch 55.2 (78181) - https://sketchapp.com -->
    <title>BTC</title>
    <desc>Created with Sketch.</desc>
    <g id="页面1" stroke="none" stroke-width="1" fill="none" fill-rule="evenodd">
        <g id="M端-银行卡待放行2" transform="translate(-26.000000, -121.000000)">
            <g id="BTC" transform="translate(26.000000, 121.000000)">
                <path d="M54,27 C54,41.91183 41.91183,54 27,54 C12.08817,54 0,41.91183 0,27 C0,12.08817 12.08817,0 27,0 C41.91183,0 54,12.08817 54,27" id="Fill-692" fill="#FFFFFF"></path>
                <path d="M34.2027384,34.7260406 C33.9766717,35.4736233 33.468089,36.0896549 32.7707123,36.4606558 C32.0733355,36.8321882 31.2711632,36.9140423 30.5113952,36.6913354 L22.9053429,34.4624067 L24.5998982,28.8647047 L32.2054103,31.0938992 L32.2056804,31.0938992 C33.7738328,31.5533982 34.6699971,33.1827725 34.2027384,34.7260406 M36.7680694,23.2545121 C37.1451174,23.9407043 37.2283056,24.7300113 37.0022389,25.4778599 C36.5349802,27.0205964 34.8782378,27.9018564 33.3108957,27.4431547 L33.3106256,27.4431547 L25.7048434,25.214226 L27.3988585,19.616524 L35.0049108,21.8454528 C35.7646787,22.0681596 36.3907513,22.5683198 36.7680694,23.2545121 M40.1728453,21.4420292 C39.3034201,19.8610232 37.8603202,18.707625 36.1098559,18.1947083 L35.1034942,17.8999805 L36.5122925,13.2454606 L32.8976554,12.1861414 L31.4888571,16.8406613 L28.4027893,15.9362801 L29.8118577,11.2817603 L28.9459437,11.0279595 L25.4379928,10 L24.0799717,14.4865596 L19.8049603,13.2337671 L18.5984607,17.2201665 L22.8734721,18.4732247 L18.481511,32.9831868 L14.2064996,31.7303943 L13,35.7170594 L17.2747413,36.9695861 L16.1287422,40.7563997 L16.9943861,41.0102005 L20.5023371,42.03816 L21.6993835,38.0833861 L24.7927437,38.9898933 L23.5956973,42.944933 L27.1957495,44 L28.3927959,40.0449603 L29.40618,40.3418142 C30.0522393,40.5310353 30.7120733,40.6248486 31.367856,40.6248486 C32.4887365,40.6248486 33.5990835,40.35085 34.6127376,39.8110916 C36.2195131,38.9556103 37.391441,37.5359206 37.9129881,35.8129988 C38.4612742,34.0007816 38.1906424,32.1391332 37.3185163,30.6067612 C38.9017938,29.7938015 40.1633921,28.3780983 40.7122184,26.5650838 C41.2337655,24.842162 41.0420004,23.0227694 40.1728453,21.4420292" id="Fill-505" fill="#F7931A"></path>
            </g>
        </g>
    </g>
</svg>