<?xml version="1.0" encoding="UTF-8"?>
<svg width="15px" height="9px" viewBox="0 0 15 9" version="1.1" xmlns="http://www.w3.org/2000/svg" xmlns:xlink="http://www.w3.org/1999/xlink">
    <!-- Generator: Sketch 54.1 (76490) - https://sketchapp.com -->
    <title>显示@1x</title>
    <desc>Created with Sketch.</desc>
    <g id="页面1" stroke="none" stroke-width="1" fill="none" fill-rule="evenodd">
        <g id="M端-登录2" transform="translate(-330.000000, -256.000000)" fill="#BBBBBB">
            <g id="编组" transform="translate(22.000000, 140.000000)">
                <g id="输入框文本" transform="translate(0.000000, 94.000000)">
                    <g id="显示" transform="translate(308.000000, 22.000000)">
                        <path d="M7.47471756,9.08500763 C4.35700763,9.08500763 2.29007634e-05,6.15084733 2.29007634e-05,4.78664885 C2.29007634e-05,2.6249313 4.3831145,0.114549618 7.47471756,0.114549618 C10.8578473,0.114549618 14.9495267,3.40229771 14.9495267,4.78664885 C14.9495267,5.93844275 10.4773511,9.08500763 7.47471756,9.08500763 M7.47471756,8.33718321 C10.2190305,8.33718321 13.9415496,5.53252672 14.2002137,4.76157252 C14.0992214,3.91699237 10.5958626,0.862374046 7.47471756,0.862374046 C4.50574809,0.862374046 0.747503817,3.29535115 0.747160305,4.78012214 C0.825251908,5.51157252 4.43177863,8.33718321 7.47471756,8.33718321" id="Fill-1"></path>
                        <path d="M7.47471756,7.21621374 C6.02945038,7.21621374 4.85819084,6.0449542 4.85819084,4.59968702 C4.85819084,3.15441985 6.02945038,1.98316031 7.47471756,1.98316031 C8.92009924,1.98316031 10.0913588,3.15441985 10.0913588,4.59968702 C10.0913588,6.0449542 8.92009924,7.21621374 7.47471756,7.21621374 M7.47471756,6.46838931 C8.50479389,6.46838931 9.34341985,5.62976336 9.34341985,4.59968702 C9.34341985,3.56972519 8.50479389,2.73109924 7.47471756,2.73109924 C6.44464122,2.73109924 5.60601527,3.56972519 5.60601527,4.59968702 C5.60601527,5.62976336 6.44464122,6.46838931 7.47471756,6.46838931" id="Fill-4"></path>
                    </g>
                </g>
            </g>
        </g>
    </g>
</svg>