<?xml version="1.0" encoding="UTF-8"?>
<svg width="9px" height="11px" viewBox="0 0 9 11" version="1.1" xmlns="http://www.w3.org/2000/svg" xmlns:xlink="http://www.w3.org/1999/xlink">
    <!-- Generator: Sketch 54.1 (76490) - https://sketchapp.com -->
    <title>下一级</title>
    <desc>Created with Sketch.</desc>
    <g id="页面1" stroke="none" stroke-width="1" fill="none" fill-rule="evenodd">
        <g id="M端注册1" transform="translate(-341.000000, -196.000000)" fill="#CCCCCC">
            <g id="编组-3" transform="translate(23.000000, 132.000000)">
                <g id="输入框文本" transform="translate(0.000000, 59.000000)">
                    <g id="下一级-4" transform="translate(318.000000, 5.000000)">
                        <g id="下一级-3">
                            <g id="下一级-2">
                                <g id="下一级" transform="translate(4.500000, 5.500000) scale(-1, 1) translate(-4.500000, -5.500000) ">
                                    <path d="M7.33319842,11 C7.16253988,11 6.99188134,10.9432639 6.86188753,10.8303707 L1.19549069,5.90938277 C0.934836436,5.68301733 0.934836436,5.31712741 1.19549069,5.09076196 L6.86188753,0.169774082 C7.12254178,-0.0565913606 7.54385505,-0.0565913606 7.80450931,0.169774082 C8.06516356,0.396139524 8.06516356,0.762029447 7.80450931,0.98839489 L2.60942336,5.50007237 L7.80450931,10.0117498 C8.06516356,10.2381153 8.06516356,10.6040052 7.80450931,10.8303707 C7.6745155,10.9432639 7.50385696,11 7.33319842,11" id="Fill-1"></path>
                                </g>
                            </g>
                        </g>
                    </g>
                </g>
            </g>
        </g>
    </g>
</svg>