<svg width="60" height="44" xmlns="http://www.w3.org/2000/svg"><path d="M19.582 23.924c-.458.394-.945.965-1.087 1.697-.193.994-.042 2.24.86 3.22 1.092 1.187 2.746 1.51 3.46 1.565 1.943.152 4.017-.878 5.577-2.055.61-.459 1.659-1.388 2.66-2.816-2.244-1.237-5.047-2.605-8.043-2.474-1.527.076-2.623.414-3.427.863m28.826 5.893A19.913 19.913 0 0050 22c0-11.025-8.97-20-20-20s-20 8.97-20 20 8.97 20 20 20c6.655 0 12.559-3.271 16.196-8.286a2013.825 2013.825 0 00-12.593-6.22c-1.664 1.899-4.126 3.798-6.909 4.628-1.748.518-3.32.718-4.97.38-1.631-.331-2.832-1.098-3.53-1.864-.357-.39-.767-.889-1.065-1.48l.049.118s-.171-.293-.303-.762a3.465 3.465 0 01-.132-.708 3.54 3.54 0 01-.01-.508 3.69 3.69 0 01.064-.942c.161-.791.503-1.71 1.372-2.569 1.919-1.875 4.482-1.977 5.815-1.968 1.968.01 5.391.874 8.277 1.895.796-1.7 1.308-3.52 1.64-4.732H21.924V17.69h6.152v-2.593H20.63v-1.294h7.451V11.21c0-.356.068-.65.65-.65h2.915v3.238h8.095v1.294h-8.1v2.593h6.48s-.65 3.628-2.686 7.202c4.516 1.616 10.864 4.101 12.973 4.931" fill="#1296DB" fill-rule="evenodd"/></svg>