<svg width="50" height="20" xmlns="http://www.w3.org/2000/svg"><g fill="none" fill-rule="evenodd"><path d="M2 .5A1.5 1.5 0 00.5 2v16A1.5 1.5 0 002 19.5h46a1.5 1.5 0 001.5-1.5V2A1.5 1.5 0 0048 .5H2z" stroke="#3C64EE"/><text font-family="Helvetica" font-size="12" fill="#3C64EE"><tspan x="20" y="14">BTC</tspan></text><path d="M15.392 7.691c.08.875-.21 1.496-.872 1.861.52.135.907.383 1.165.743.257.361.357.875.3 1.544a2.92 2.92 0 01-.217.902c-.113.26-.256.473-.43.641a2.173 2.173 0 01-.645.422 3.69 3.69 0 01-.808.25 7.38 7.38 0 01-.968.107V16h-1.024v-1.81c-.355 0-.626-.003-.812-.008V16h-1.024v-1.839l-.36-.003a20 20 0 00-.366-.004H8l.206-1.32h.738c.222 0 .351-.123.386-.368V9.567h.107a.611.611 0 00-.107-.007V7.49C9.272 7.163 9.075 7 8.738 7H8V5.818l1.41.007c.284 0 .5-.003.646-.007V4h1.024v1.782c.364-.01.635-.015.812-.015V4h1.024v1.818c.35.033.66.088.932.162.27.074.521.183.752.325.23.142.413.33.549.562.136.233.217.508.243.826v-.002zM14 11.911a1.198 1.198 0 00-.363-.878 1.294 1.294 0 00-.4-.244 3.032 3.032 0 00-.458-.148 3.59 3.59 0 00-.516-.072 6.667 6.667 0 00-.932-.015l-.331.008v2.703c.037 0 .123 0 .258.004.135.002.247.004.335.004.088 0 .211-.004.37-.013a4.296 4.296 0 00.806-.1c.15-.03.28-.068.387-.11.107-.043.218-.099.331-.168.114-.07.206-.15.276-.24.07-.09.127-.196.17-.319.044-.123.066-.259.067-.407v-.004zm-.5-3.54a.933.933 0 00-.087-.414.994.994 0 00-.212-.296 1.031 1.031 0 00-.335-.197 2.377 2.377 0 00-.383-.117 3.736 3.736 0 00-.428-.056 4.274 4.274 0 00-.403-.018 209.798 209.798 0 00-.652.01V9.45l.24.004a7.111 7.111 0 00.673-.015c.154-.007.281-.02.383-.039.102-.018.22-.044.358-.077.137-.033.25-.077.338-.131A1.96 1.96 0 0013.25 9a.673.673 0 00.188-.272.995.995 0 00.062-.36v.001z" fill="#3C64EE" fill-rule="nonzero"/></g></svg>