<svg width="24" height="24" xmlns="http://www.w3.org/2000/svg"><defs><linearGradient x1="117.422%" y1="50%" x2="0%" y2="50%" id="a"><stop stop-color="#3C64EE" offset="0%"/><stop stop-color="#829DFC" offset="100%"/></linearGradient></defs><g fill="none" fill-rule="evenodd"><circle fill="url(#a)" cx="12" cy="12" r="12"/><path d="M9 13a3 3 0 106 0 3 3 0 00-6 0" fill="#FFF"/><path d="M12 17a4 4 0 110-8 4 4 0 010 8m5.785-9.524h-2.63l-.83-1.246a.517.517 0 00-.43-.23h-3.791a.517.517 0 00-.43.23l-.83 1.246H6.216A1.21 1.21 0 005 8.679v8.117A1.21 1.21 0 006.215 18h11.57A1.21 1.21 0 0019 16.796V8.68a1.21 1.21 0 00-1.215-1.203" fill="#FFF"/></g></svg>