<svg width="14" height="13" xmlns="http://www.w3.org/2000/svg"><path d="M13.808.04a.125.125 0 00-.14-.015L1.071 6.703a.136.136 0 00.02.248l4.217 1.39a.126.126 0 00.126-.029l5.834-5.448L6.61 8.579a.138.138 0 00-.026.125.132.132 0 00.087.09l4.68 1.478a.128.128 0 00.102-.012.134.134 0 00.06-.085l2.34-9.998a.138.138 0 00-.045-.138zM7.756 9.813l-1.428-.379a.16.16 0 00-.127.019.12.12 0 00-.058.1v2.323c0 .055.042.104.103.12a.166.166 0 00.04.004.15.15 0 00.121-.057l1.428-1.946a.108.108 0 00.013-.109.136.136 0 00-.092-.075z" fill="#8D8D8D" fill-rule="evenodd"/></svg>