<svg width="10" height="12" xmlns="http://www.w3.org/2000/svg"><g fill="#FF5656" fill-rule="evenodd"><path d="M8.534 5.87h-6.59c-.202 0-.365.112-.365.25s.163.25.365.25h6.59c.201 0 .365-.112.365-.25s-.164-.25-.365-.25m0 2.445h-6.59c-.202 0-.365.112-.365.25s.163.25.365.25h6.59c.201 0 .365-.112.365-.25s-.164-.25-.365-.25"/><path d="M9.058 10.701H.87c-.09 0-.264-.223-.264-.573V1.225C.606.875.78.65.87.65h4.663l.01-.002.135 3.248c.006.148.14.264.303.264h3.341v5.967c0 .35-.173.573-.264.573zm-.153-7.088H6.273l-.105-2.536 2.737 2.536zm1.012.337a.255.255 0 00-.075-.255L6.052.185a.327.327 0 00-.336-.06c-.012.005-.022.012-.033.019a.319.319 0 00-.15-.041H.87C.382.103 0 .596 0 1.225v8.903c0 .63.382 1.122.87 1.122h8.188c.488 0 .87-.493.87-1.122V4c0-.018-.008-.034-.011-.05z"/></g></svg>