<svg width="16" height="17" xmlns="http://www.w3.org/2000/svg"><g fill="#3C64EE" fill-rule="evenodd"><path d="M8.308 17c3.176 0 6.118-1.894 7.493-4.825a.636.636 0 00-.289-.84.61.61 0 00-.82.295c-1.173 2.497-3.678 4.11-6.384 4.11-3.903 0-7.077-3.247-7.077-7.24 0-3.993 3.174-7.24 7.077-7.24 2.233 0 4.36 1.097 5.691 2.936a.607.607 0 00.861.131.64.64 0 00.128-.88C13.426 1.288 10.928 0 8.308 0 3.727 0 0 3.813 0 8.5 0 13.187 3.727 17 8.308 17"/><path d="M6.154 8.815h9.23c.34 0 .616-.282.616-.63a.623.623 0 00-.615-.63h-8l1.107-1.51a.64.64 0 00-.123-.882.606.606 0 00-.861.126L5.662 7.807a.642.642 0 00-.059.66.614.614 0 00.55.348"/></g></svg>