<svg width="60" height="44" xmlns="http://www.w3.org/2000/svg"><g fill="none" fill-rule="evenodd"><path d="M12.966 7.058h13.98c1.936 0 3.17 1.368 2.694 3.021l-6.512 23.834c-.45 1.678-2.415 3.02-4.352 3.02H4.798c-1.937 0-3.172-1.366-2.695-3.02l6.512-23.834c.45-1.654 2.386-3.02 4.351-3.02" fill="#E03333"/><path d="M25.766 7.058h16.056c1.937 0 1.067 1.368.618 3.021l-6.512 23.834c-.45 1.678-.309 3.02-2.274 3.02H17.598c-1.965 0-3.172-1.366-2.695-3.02l6.512-23.834c.45-1.654 2.386-3.02 4.351-3.02" fill="#004889"/><path d="M41.177 7.058h13.95c1.966 0 3.173 1.368 2.696 3.021L51.31 33.913c-.449 1.678-2.414 3.02-4.35 3.02H33.007c-1.965 0-3.172-1.366-2.694-3.02l6.512-23.834c.45-1.654 2.414-3.02 4.35-3.02" fill="#008089"/><path d="M39.979 29.723h1.666l.497-1.064h-1.667l-.496 1.064zm1.347-2.955l-.567 1.253s.638-.212.958-.285c.354-.046.85-.093.85-.093l.39-.875h-1.63zm.816-1.798l-.567 1.206s.602-.19.957-.237c.354-.07.851-.07.851-.07l.39-.875-1.631-.024zm3.688 0l-2.163 4.753h.567l-.46.97h-.568l-.142.307h-2.057l.142-.308H37l.425-.898h.426l2.198-4.824.426-.97h2.093l-.213.497s.567-.26 1.099-.354c.532-.095 3.546-.119 3.546-.119l-.46.97-.71-.024z" fill="#FFF"/><path d="M46.257 24h1.778l.029.542c0 .093.084.141.282.141h.367l-.339.919h-.96c-.819.048-1.157-.259-1.13-.589L46.258 24zm.225 4.313h-1.694l.283-.801h1.92l.282-.732h-1.92l.339-.918H51l-.339.918h-1.779l-.282.732h1.779l-.283.8h-1.92l-.338.33h.79l.198 1.014c.028.094.028.165.056.212.029.047.283.047.424.047h.226l-.367 1.037h-.593c-.085 0-.226 0-.424-.023-.17-.025-.31-.095-.423-.142a.492.492 0 01-.31-.354l-.198-1.013-.876 1.013c-.282.307-.65.567-1.299.567H43.8l.31-.897h.48a.687.687 0 00.34-.094.443.443 0 00.254-.189l1.298-1.507zM27.96 26.097h4.49l-.34.896h-1.778l-.283.754h1.836l-.339.919h-1.835l-.452 1.225c-.056.141.424.166.621.166l.904-.095-.367 1.014h-2.062c-.169 0-.282-.024-.48-.047-.169-.048-.254-.095-.338-.212-.085-.095-.198-.19-.113-.401l.593-1.65H27l.339-.943h1.016l.283-.754H27.62l.34-.872zm3.021-1.603h1.836l-.34.943h-2.512l-.282.19c-.113.093-.17.046-.311.116a1.921 1.921 0 01-.819.189h-.79l.338-.896h.254c.198 0 .34-.023.424-.046.085-.048.17-.143.282-.284l.452-.706h1.835l-.367.494zm3.53 1.532s.508-.378 1.355-.494c.198-.025 1.412-.025 1.412-.025l.197-.517h-2.597l-.367 1.036zm2.428.4h-2.57l-.169.426h2.23c.255-.025.311 0 .34 0l.17-.425zM33.607 24h1.553l-.226.66s.509-.33.847-.448c.34-.119 1.13-.212 1.13-.212h2.54l-.846 2.403c-.141.4-.31.684-.424.802a.922.922 0 01-.423.33 2.096 2.096 0 01-.593.164c-.17 0-.424.024-.79.024h-2.457l-.678 1.886c-.056.189-.085.282-.056.33.028.047.113.093.226.093l1.072-.093-.367 1.037h-1.214c-.395 0-.649 0-.847-.024-.198 0-.367 0-.508-.094-.113-.094-.282-.19-.282-.307 0-.094.056-.282.14-.519L33.608 24z" fill="#FFF"/><path d="M37.857 27.523l-.145.643c-.058.214-.117.348-.291.481-.175.134-.38.294-.874.294l-.903.026v.749c0 .214.058.188.088.214a.228.228 0 00.116.053h.291l.845-.053-.35 1.07h-.99c-.699 0-1.194 0-1.369-.134-.174-.107-.174-.214-.174-.428l.058-2.887h1.573l-.03.589h.379c.116 0 .204 0 .262-.054.058-.027.087-.08.117-.16l.145-.454 1.252.053v-.002zM15.523 14c-.058.24-1.049 4.49-1.078 4.49-.204.857-.378 1.471-.902 1.872-.291.24-.67.347-1.078.347-.67 0-1.048-.293-1.106-.881v-.187l.203-1.15s1.049-3.876 1.253-4.384c0-.026 0-.053.029-.053-2.068.025-2.417 0-2.446-.026 0 .025-.058.267-.058.267l-1.078 4.383-.087.375L9 20.255c0 .347.087.642.233.91.495.8 1.893.908 2.679.908 1.019 0 1.98-.214 2.62-.561 1.136-.615 1.427-1.578 1.69-2.406l.116-.429s1.077-4.036 1.281-4.543c0-.026 0-.053.03-.053-1.573-.027-2.01-.053-2.126-.081zm5.998 8.02c-.728 0-.99 0-1.834.025l-.03-.053c.088-.293.146-.587.234-.882l.116-.4c.146-.642.32-1.364.32-1.604.03-.134.059-.482-.349-.482-.175 0-.35.08-.553.162-.117.346-.32 1.282-.408 1.71-.204.909-.233 1.016-.32 1.47l-.058.054c-.758 0-1.02 0-1.864.025l-.03-.053c.147-.534.292-1.068.438-1.63.349-1.47.436-2.031.553-2.78l.058-.053a28.889 28.889 0 001.951-.295l.087.081-.145.454c.145-.08.291-.16.466-.24a3.159 3.159 0 011.165-.24c.407 0 .844.107 1.019.534.174.374.058.855-.175 1.764l-.117.453c-.233 1.017-.261 1.204-.407 1.9l-.117.08zm2.97-.936h-.99c-.262 0-.553.026-.96.026l-.03-.025-.029-.028c.117-.374.175-.534.233-.667.058-.135.117-.269.204-.668.117-.51.204-.857.262-1.177.058-.295.087-.562.146-.857l.029-.025.029-.028c.437-.053.728-.106.99-.133.291-.026.582-.08 1.02-.16l.028.026v.028l-.262.961c-.087.321-.175.643-.233.963-.174.668-.233.935-.262 1.096-.029.16-.058.267-.116.615l-.03.025-.029.028zm4.63-2.353c-.029.162-.204.83-.437 1.097-.145.187-.349.32-.553.32-.058 0-.407 0-.436-.48 0-.241.058-.482.116-.749.204-.775.408-1.444.99-1.444.495-.026.524.454.32 1.256zm1.893.055c.262-1.044.058-1.497-.204-1.792-.378-.454-1.048-.587-1.747-.587-.407 0-1.398.025-2.184.694-.553.481-.815 1.122-.96 1.739-.146.613-.35 1.764.785 2.19.35.134.845.187 1.194.187.845 0 1.69-.214 2.33-.827.495-.536.728-1.284.786-1.604zm18.957-2.326c-.903.16-1.165.187-2.039.293l-.058.054c0 .053-.029.134-.029.187a1.157 1.157 0 00-.64-.482c-.379-.133-1.31.055-2.097.696-.554.481-.815 1.123-.961 1.738-.146.614-.35 1.763.786 2.164.35.134.699.188 1.02.161.349-.027.67-.187.96-.402-.029.081-.058.188-.087.269l.058.053c.815-.027 1.077-.027 1.951-.027l.087-.054c.117-.694.263-1.363.583-2.699.146-.642.32-1.256.495-1.899l-.03-.052zm-2.883 3.448c-.146.187-.495.32-.699.32-.058 0-.408 0-.437-.481 0-.24.059-.48.117-.749.204-.748.408-1.416.99-1.416.379 0 .553.321.524.856a3.056 3.056 0 01-.117.428c-.058.24-.116.454-.174.693-.059.108-.117.242-.204.35zM35.994 22.02c-.728 0-.99 0-1.835.025l-.029-.053a9.74 9.74 0 01.233-.882l.087-.4c.146-.642.32-1.364.32-1.604 0-.134.059-.482-.349-.482-.175 0-.35.08-.553.162-.117.346-.32 1.282-.408 1.71-.204.909-.233 1.016-.32 1.47l-.058.054c-.758 0-1.02 0-1.864.025l-.03-.053c.147-.534.292-1.068.438-1.63.349-1.47.436-2.031.553-2.78l.058-.053a28.904 28.904 0 001.951-.295l.058.081-.145.454c.145-.08.29-.16.466-.24a3.16 3.16 0 011.165-.24c.407 0 .844.107 1.019.534.174.374.058.855-.175 1.764l-.116.453c-.233 1.017-.263 1.204-.408 1.9.058 0-.058.08-.058.08z" fill="#FFF"/><path d="M41.967 14.02h-.581c-1.495.024-2.104 0-2.353-.02-.027.087-.055.24-.055.24l-.526 1.982-1.355 4.402c1.3-.023 1.853-.023 2.075 0 .055-.198.36-1.365.36-1.365s.248-.858.276-.903c0 0 .083-.087.166-.131h.111c1.134 0 2.407 0 3.404-.595a2.99 2.99 0 001.356-1.716 2.09 2.09 0 00.082-.594c0-.287-.082-.55-.276-.748-.498-.53-1.494-.55-2.684-.55m.747 2.046c-.11.44-.47.814-.941.99-.387.154-.858.154-1.328.154h-.305l.028-.11s.581-1.98.581-1.959v-.197l.222.02 1.217.09c.47.175.664.549.526 1.012m-16.935 1.167c.47-.265.525-.595.138-.793-.387-.176-1.08-.132-1.522.132-.47.243-.526.594-.138.793.387.176 1.079.131 1.522-.132M55 16.025l-.055-.067c-.858.132-.996.154-1.799.242l-.055.044v.022c-.581 1.079-.554.836-1.052 1.695v-.11l-.11-1.827-.084-.066c-.885.132-.913.154-1.743.242l-.055.044v.066c.11.419.083.33.194.99.055.33.11.661.165.97.084.527.139.814.222 1.628-.554.726-.692 1.011-1.218 1.65l-.387.484c-.056.045-.083.088-.139.088-.055.022-.138.022-.249.022h-.221l-.304.837 1.079.021c.637 0 1.024-.242 1.245-.55l.664-.923.083-.067C51.57 20.734 55 16.024 55 16.024" fill="#FFF"/></g></svg>