<svg width="50" height="20" xmlns="http://www.w3.org/2000/svg"><g fill="none" fill-rule="evenodd"><path d="M2 .5A1.5 1.5 0 00.5 2v16A1.5 1.5 0 002 19.5h46a1.5 1.5 0 001.5-1.5V2A1.5 1.5 0 0048 .5H2z" stroke="#3C64EE"/><text font-family="Helvetica" font-size="12" fill="#3C64EE"><tspan x="19.329" y="14">EOS</tspan></text><path d="M10.51 14.452l-.464 1.414-.464-1.414h.928zm-3.016-4.355l-1.334 2.15.87-3.563.464 1.413zm3.886 3.733l.986-2.94 1.798 2.94H11.38zm2.146.622l-2.958 1.753.58-1.753h2.378zM9.698 6.478L7.9 9.418l-.58-1.752 2.378-3.224v2.036zm2.204 3.733l-1.218 3.619H9.35l-1.218-3.62 1.856-2.997 1.914 2.998zm-1.566-3.733V4.442l2.378 3.224-.58 1.753-1.798-2.941zm-2.61 4.411l.986 2.941H5.928l1.798-2.94zm1.16 3.563l.58 1.753-2.958-1.753h2.378zm3.712-4.355l.464-1.357.87 3.45-1.334-2.093zm.754-2.601V7.44l-3.19-4.355c-.058-.113-.232-.113-.29 0L6.682 7.44v.056L5 14.169c0 .057 0 .17.058.17l4.814 2.828h.232l4.814-2.828c.058-.057.116-.113.058-.17l-1.624-6.673z" stroke="#3C64EE" stroke-width=".25" fill="#3C64EE"/></g></svg>