<svg width="32" height="32" xmlns="http://www.w3.org/2000/svg"><g fill="none" fill-rule="evenodd"><path d="M1.803 4.35v25.397h28.272l-.002-25.398H1.803zm28.27 27.2H1.803A1.805 1.805 0 010 29.746V4.349c0-.994.809-1.802 1.803-1.802h28.27c.994 0 1.803.808 1.803 1.802v25.398c0 .994-.809 1.802-1.803 1.802z" fill="#0F3256"/><path fill="#0F3256" d="M7.854 7.279h1.802V0H7.854zm15.706 0h1.803V0H23.56zM.901 12.394h30.074v-1.802H.9z"/><path d="M24.353 19.63H7.523a.9.9 0 01-.679-1.493l2.506-2.873 1.359 1.184-1.203 1.38h14.847v1.803zm-1.827 7.105l-1.359-1.184 1.203-1.38H7.523V22.37h16.83a.901.901 0 01.679 1.493l-2.506 2.873z" fill="#3C64EE"/></g></svg>