<svg width="117" height="111" xmlns="http://www.w3.org/2000/svg"><defs><linearGradient x1="50%" y1="0%" x2="50%" y2="98.404%" id="a"><stop stop-color="#FF8568" offset="0%"/><stop stop-color="#FF584C" offset="100%"/></linearGradient></defs><g fill="none" fill-rule="evenodd"><ellipse fill="#F3F3F3" cx="58" cy="105.883" rx="31" ry="4.883"/><path fill="#FF775F" opacity=".34" d="M77.764 0l2.335 4.27 4.27 2.336L80.1 8.94l-2.335 4.27-2.336-4.27-4.27-2.335 4.27-2.336z"/><path fill="#FDDCD9" d="M112.023 41.858l1.623 2.966 2.966 1.622-2.966 1.623-1.623 2.966-1.622-2.966-2.966-1.623 2.966-1.622z"/><path d="M21.62 21.215a3.36 3.36 0 11-5.82 3.362 3.361 3.361 0 115.82-3.362" fill="#FFE2E0"/><path fill="#FF5A4D" opacity=".476" d="M7.692 50.23l2.72 4.97 4.972 2.72-4.973 2.72-2.719 4.972-2.72-4.973L0 57.92l4.973-2.72z"/><path d="M88 56c0 16.569-13.431 30-30 30-16.569 0-30-13.431-30-30 0-16.569 13.431-30 30-30 16.569 0 30 13.431 30 30" fill="url(#a)"/><path d="M57.623 67.226A2.63 2.63 0 0155 64.603v-20.98A2.63 2.63 0 0157.623 41a2.63 2.63 0 012.622 2.623v20.98a2.63 2.63 0 01-2.622 2.623m2.623 6.397a2.623 2.623 0 11-5.245 0 2.623 2.623 0 015.245 0" fill="#FFF"/></g></svg>