<svg width="12" height="12" xmlns="http://www.w3.org/2000/svg"><g fill="#9AA2B2" fill-rule="evenodd"><path d="M6 .889A5.117 5.117 0 00.889 6 5.117 5.117 0 006 11.111 5.117 5.117 0 0011.111 6 5.117 5.117 0 006 .889M6 12c-3.308 0-6-2.692-6-6s2.692-6 6-6 6 2.692 6 6-2.692 6-6 6"/><path d="M6.623 2.442l-.23 5.103h-.787l-.229-5.103h1.246zm-.1 5.89c.14.13.21.299.21.508 0 .21-.07.379-.21.518a.79.79 0 01-.528.2c-.2 0-.369-.07-.508-.21a.666.666 0 01-.22-.508c0-.21.07-.379.22-.508.14-.14.308-.2.508-.2.21 0 .388.06.528.2z"/></g></svg>