<svg width="24" height="24" xmlns="http://www.w3.org/2000/svg"><g fill="#3C64EE" fill-rule="evenodd"><path d="M5.749 10.52l.002.001-.002-.001zm-.031.548h-.002.002zm6.006 4.403h.001zm-.337-3.101l.681.062c2.43.221 4.348 1.096 5.544 2.53.184.22.339.44.47.65-.138-1.315-.588-2.42-1.345-3.297-.695-.804-1.637-1.41-2.8-1.801a8.354 8.354 0 00-1.762-.385l-.639-.065.181-2.798-5.607 3.553 5.104 4.228.173-2.677zm-.216 3.34zm7.594 1.613zm-.336 1.049l-.063-.003h-.001a.997.997 0 01-.92-.858s-.14-.837-.856-1.695c-.857-1.026-2.218-1.702-3.961-1.973l-.127 1.954a.987.987 0 01-.6.849.988.988 0 01-1.027-.149L4.9 11.547a.995.995 0 01.104-1.606l6.563-4.158a.99.99 0 011.039-.015.99.99 0 01.485.918l-.143 2.205c.404.07.889.183 1.413.359 1.393.468 2.532 1.206 3.385 2.194 1.313 1.519 1.876 3.542 1.675 6.014a1 1 0 01-.992.914z"/><path d="M12 1.333C6.118 1.333 1.333 6.118 1.333 12S6.118 22.667 12 22.667 22.667 17.882 22.667 12 17.882 1.333 12 1.333M12 24C5.383 24 0 18.617 0 12S5.383 0 12 0s12 5.383 12 12-5.383 12-12 12"/></g></svg>