<svg width="28" height="25" xmlns="http://www.w3.org/2000/svg"><g fill="none" fill-rule="evenodd"><rect fill="#DDE5FD" x="4" y="5" width="24" height="20" rx="2"/><path d="M18.354 8.18c-1.623 0-2.942 1.51-2.942 3.367s1.32 3.367 2.942 3.367h6.588v6.055c0 .703-.5 1.275-1.114 1.275H1.858c-.615 0-1.115-.572-1.115-1.275V2.126c0-.703.5-1.276 1.114-1.276h21.97c.615 0 1.115.573 1.115 1.276V8.18h-6.588zm6.588 5.884h-6.588c-1.213 0-2.2-1.13-2.2-2.517s.987-2.516 2.2-2.516h6.588v5.033zM23.828 0H1.858C.832 0 0 .953 0 2.126v18.843c0 1.172.833 2.126 1.857 2.126h21.97c1.025 0 1.858-.954 1.858-2.126V2.126C25.685.953 24.852 0 23.828 0z" fill="#000"/><path d="M18.564 10.941c.293 0 .53.272.53.606 0 .335-.237.607-.53.607-.293 0-.53-.272-.53-.607 0-.334.237-.606.53-.606m-1.272.606c0 .803.57 1.457 1.272 1.457.701 0 1.273-.654 1.273-1.457 0-.802-.572-1.456-1.273-1.456s-1.272.654-1.272 1.456" fill="#000"/></g></svg>