<svg width="26" height="24" xmlns="http://www.w3.org/2000/svg"><g fill="none" fill-rule="evenodd"><circle fill="#DDE5FD" cx="16" cy="12" r="10"/><path d="M11.7 23.397C5.247 23.397 0 18.15 0 11.7c0-.291.01-.58.032-.865l.855.063c-.02.265-.03.532-.03.802 0 5.978 4.864 10.841 10.842 10.841 5.979 0 10.841-4.863 10.841-10.84C22.54 5.72 17.678.856 11.7.856H3.661l2.247 4.168-.755.407-2.588-4.8a.433.433 0 01.009-.424A.43.43 0 012.943 0H11.7c6.45 0 11.698 5.248 11.698 11.7 0 6.45-5.248 11.697-11.698 11.697" fill="#666"/><path d="M13.023 13.945c1.697.66 2.869 1.206 4.327 2.004l-.468.683c-1.354-.808-2.527-1.378-4.246-2.073l.387-.614zm-1.73-3.746c-.934-.569-1.458-.82-2.471-1.184l.444-.58c.933.33 1.537.614 2.425 1.127l-.398.637zm-.74 1.685c-.934-.524-1.572-.796-2.619-1.127l.443-.615c1.117.365 1.766.638 2.609 1.094l-.434.648zM7.705 7c.296.046.65.068 1.241.068h6.616c.648 0 .796-.011 1.046-.057l.41.422c-.057.114-.057.114-.217.546a9.99 9.99 0 01-.933 1.948c-.306-.194-.42-.24-.74-.309.4-.546.673-1.093.945-1.855H8.947c-.591 0-.933.023-1.24.069V7zm8.243 5.533c.638 0 .957-.011 1.276-.068v.843a9.937 9.937 0 00-1.276-.07h-3.2c-.375 1.151-.99 1.822-2.277 2.46-.853.422-1.627.66-2.97.945a2.073 2.073 0 00-.502-.74c1.503-.205 2.403-.478 3.393-1.025.854-.477 1.275-.922 1.56-1.64H8.446c-.593 0-.934.023-1.242.07v-.843c.296.046.65.068 1.242.068h3.699c.138-.626.25-1.98.25-2.995 0-.5-.033-.807-.09-1.07h.934a7.218 7.218 0 00-.08 1.07c-.012.98-.103 2.061-.25 2.995h3.039z" fill="#666"/></g></svg>