<svg width="29" height="24" xmlns="http://www.w3.org/2000/svg"><g fill="#3C64EE" fill-rule="evenodd"><path d="M2.937 1.791c-.81 0-1.469.643-1.469 1.433v17.733c0 .79.659 1.432 1.469 1.432h23.126c.81 0 1.469-.642 1.469-1.432V3.224c0-.79-.659-1.433-1.469-1.433H2.937zm23.126 22.031H2.937C1.317 23.822 0 22.537 0 20.957V3.224C0 1.644 1.317.358 2.937.358h23.126C27.683.358 29 1.644 29 3.224v17.733c0 1.58-1.317 2.865-2.937 2.865z"/><path d="M1.468 6.894h26.064v-3.67c0-.79-.659-1.433-1.469-1.433H2.937c-.81 0-1.469.643-1.469 1.433v3.67zM29 8.326H0V3.224C0 1.644 1.317.358 2.937.358h23.126C27.683.358 29 1.644 29 3.224v5.102zm-12.69 9.486h6.86V16.38h-6.86z"/></g></svg>