<svg width="24" height="24" xmlns="http://www.w3.org/2000/svg"><g fill="#3C64EE" fill-rule="evenodd"><path d="M10.057 3.594C5.153 3.92 1.263 8.014 1.263 13c0 5.197 4.228 9.425 9.426 9.425 4.985 0 9.078-3.89 9.404-8.793H10.69a.632.632 0 01-.632-.632V3.594zm.632 20.093C4.795 23.687 0 18.893 0 13 0 7.105 4.795 2.31 10.69 2.31c.348 0 .631.283.631.632v9.425h9.426c.348 0 .631.283.631.632 0 5.894-4.795 10.688-10.688 10.688z"/><path d="M13.63 10.057h8.774c-.313-4.695-4.078-8.46-8.773-8.773v8.773zm9.426 1.263H12.999a.632.632 0 01-.632-.631V.632c0-.35.283-.632.632-.632 5.894 0 10.689 4.795 10.689 10.689a.632.632 0 01-.632.631z"/></g></svg>