<svg width="26" height="23" xmlns="http://www.w3.org/2000/svg"><g fill="none" fill-rule="evenodd"><circle fill="#DDE5FD" cx="10" cy="12" r="10"/><path d="M22.454 22.591h-8.755C7.25 22.591 2 17.524 2 11.296 2 5.067 7.248 0 13.7 0c6.45 0 11.698 5.067 11.698 11.296 0 .28-.01.558-.031.834l-.856-.06c.02-.255.03-.514.03-.774C24.541 5.523 19.678.828 13.7.828 7.721.828 2.857 5.523 2.857 11.296c0 5.772 4.864 10.468 10.842 10.468h8.037l-2.248-4.025.755-.392 2.588 4.635a.402.402 0 01-.008.408.434.434 0 01-.369.201" fill="#666"/><path d="M18.06 15.822a24.445 24.445 0 00-2.285-1.723l.409-.461c.762.461 1.57 1.021 2.296 1.613l-.42.571zm-3.32-4.752a9.01 9.01 0 00-1.625-1.064l.42-.417c.648.34 1 .57 1.626 1.02l-.42.461zm.319-3.512H13.99c-.478 0-.899.022-1.16.066V6.89c.25.043.67.065 1.16.065h1.068c-.012-.482-.023-.701-.069-.954h.807c-.034.242-.046.461-.056.954h1.227c.478 0 .886-.022 1.149-.065v.735a8.048 8.048 0 00-1.149-.066H15.74v1.12h1.5c.387 0 .558-.012.761-.034l.455.462c-.09.153-.09.153-.375.724a7.358 7.358 0 01-.636 1.065 2.141 2.141 0 00-.614-.418 4.57 4.57 0 00.738-1.196h-4.068c-.49 0-.761.022-1.012.066v-.735a5.6 5.6 0 00.989.065h1.58v-1.12zm-1.057 4.61c-.694-.527-1.046-.747-1.683-1.054l.41-.439c.966.516 1.125.615 1.693 1.01l-.42.482zm-.296.9c-.523 0-.898.022-1.182.054v-.713c.25.044.557.066 1.125.066h1.614c.091-.56.16-1.416.16-2.14 0-.308-.012-.406-.046-.648l.784.012c-.046.285-.046.285-.067 1.086-.035.9-.058 1.218-.138 1.69h1.354c.568 0 .887-.011 1.136-.055v.702a10.252 10.252 0 00-1.149-.054h-1.466c-.374 1.339-1.397 2.205-3.284 2.798a1.906 1.906 0 00-.432-.626c1.66-.416 2.591-1.097 2.99-2.172h-1.399zm-2.091 2.282c-.091-.143-.16-.264-.205-.329-.296-.495-.296-.495-.864-1.207l.535-.33c.5.505.75.846 1.102 1.449l-.568.417zm-3.058-2.03c.023-.274.034-.593.034-.988V7.427c0-.429-.011-.725-.045-1.032.318.022.5.032.988.032h1.672c.34 0 .635-.01.864-.043a12.19 12.19 0 00-.035 1.01v4.84c0 .471.012.735.045 1.042h-.76a8.76 8.76 0 00.045-1.02V7.03H9.262v5.312c0 .406.01.68.034.977h-.739zm2.126-5.498c-.034.351-.045.79-.045 1.393v1.91c0 1.372-.08 2.042-.285 2.678a3.838 3.838 0 01-1.023 1.58c-.181.176-.386.34-.773.615A2.469 2.469 0 008 15.482c.886-.56 1.273-.956 1.58-1.559.136-.285.227-.614.307-1.13.057-.307.09-.648.09-.801V9.237c0-.811-.01-1.02-.067-1.415h.773z" fill="#666"/></g></svg>