<svg width="26" height="26" xmlns="http://www.w3.org/2000/svg"><g fill="none" fill-rule="evenodd"><rect fill="#DDE5FD" x="4" y="11" width="22" height="15" rx="2"/><path d="M21.778 23.111H2.222A1.335 1.335 0 01.89 21.778v-5.776h22.22v5.776c0 .735-.598 1.333-1.333 1.333M2.222 8.004h19.556c.735 0 1.333.599 1.333 1.334v5.775H.89V9.338c0-.735.598-1.334 1.333-1.334m19.556-.888H2.222A2.224 2.224 0 000 9.338v12.44C0 23.003.996 24 2.222 24h19.556A2.225 2.225 0 0024 21.778V9.338a2.224 2.224 0 00-2.222-2.222M2.84 4.388h18.323V3.5H2.839zM5.974.889h12.052V0H5.974z" fill="#666"/></g></svg>