<svg width="18" height="11" xmlns="http://www.w3.org/2000/svg"><g fill="#BBB" fill-rule="evenodd"><path d="M8.97 10.902C5.228 10.902 0 7.381 0 5.744 0 3.15 5.26.137 8.97.137c4.06 0 8.97 3.946 8.97 5.607 0 1.382-5.367 5.158-8.97 5.158m0-.897c3.293 0 7.76-3.366 8.07-4.291-.12-1.014-4.325-4.68-8.07-4.68-3.563 0-8.073 2.92-8.073 4.702.093.878 4.421 4.269 8.073 4.269"/><path d="M8.97 8.66a3.14 3.14 0 11-.001-6.28 3.14 3.14 0 010 6.28m0-.898a2.245 2.245 0 002.243-2.242A2.245 2.245 0 008.97 3.277 2.245 2.245 0 006.727 5.52 2.245 2.245 0 008.97 7.762"/></g></svg>