<svg width="25" height="25" xmlns="http://www.w3.org/2000/svg"><g fill="none" fill-rule="evenodd"><path d="M24.975 12.562c0 6.87-5.568 12.438-12.437 12.438C5.668 25 .1 19.43.1 12.562.1 5.692 5.668.124 12.538.124c6.869 0 12.437 5.569 12.437 12.438z" fill="#000"/><path d="M7.773 9.475l.973 3-2.719 4.78 1.746-7.78zm8.557 3l.973-3 1.745 7.78-2.718-4.78zm-.225.694l3.237 5.692-6.325 3.83 3.088-9.522zm-4.046 9.522l-6.326-3.83 3.237-5.692 3.089 9.522zm.479-15.794l3.206 5.638-3.206 9.888-3.207-9.888 3.207-5.638zm-.27-.615l-3.162 5.56-1.082-3.338 4.244-5.847v3.625zm.539-3.625l4.245 5.847-1.083 3.338-3.162-5.56V2.657zm7.16 16.24l-2.355-10.5a.27.27 0 00-.044-.098L12.756 1.67a.27.27 0 00-.436 0L7.508 8.3a.27.27 0 00-.045.099L5.107 18.896a.27.27 0 00.124.29l7.167 4.34.01.005.014.007a.244.244 0 00.023.01l.014.005a.267.267 0 00.026.006l.013.003a.269.269 0 00.08 0l.012-.003a.259.259 0 00.026-.006l.015-.005a.274.274 0 00.022-.01l.014-.007.01-.005 7.168-4.34a.27.27 0 00.123-.29z" fill="#FFF"/></g></svg>