<svg width="25" height="25" xmlns="http://www.w3.org/2000/svg"><g fill="none" fill-rule="evenodd"><path d="M24.876 12.438c0 6.87-5.569 12.438-12.438 12.438C5.568 24.876 0 19.307 0 12.438 0 5.568 5.569 0 12.438 0c6.87 0 12.438 5.569 12.438 12.438z" fill="#2A55E7"/><path d="M6.023 14.38l1.834-7.282a.211.211 0 00.004-.018c.017-.1.229-1.131 1.474-1.078h5.956s2.517-.092 2.7 2.199c0 0 .275 2.567-2.116 3.813 0 0-.027.013-.065.037l-.037.027a.38.38 0 00-.037.03c-.011.01-.023.028-.031.039a.115.115 0 00-.025.061s-.027.134.183.192l.029.009c.07.016.54.193.897.49l.008.009c.08.076 1.56 1.435.363 3.827l-.01.021c-.094.177-1.325 2.38-4.58 2.41h-.013c-.176.013-3.778.229-3.365-1.71a.272.272 0 00.005-.028c.016-.152.23-1.696 2.448-3.967 0 0 .163-.176.276-.026a.23.23 0 01.038.09l.268 1.192a.374.374 0 00.04.106c.055.092.208.216.367-.012a.358.358 0 00.04-.077l1.915-5.958a.27.27 0 00.01-.05c.01-.083.008-.299-.296-.196a.232.232 0 00-.027.01l-5.47 2.527s-.347.16-.021.324a.238.238 0 00.043.017l1.147.327s.314.108.083.334c-.266.262-1.967 1.081-3.328 2.604a.496.496 0 01-.408.21.27.27 0 01-.164-.05c-.09-.062-.208-.198-.135-.454" fill="#FFF"/></g></svg>