<svg width="25" height="25" xmlns="http://www.w3.org/2000/svg"><g fill="#FF8E00" fill-rule="evenodd"><path d="M15.298 9.434c-.601-.272-1.246-.405-1.89-.545-.102-.02-.095.042-.11.09-.21.797-.412 1.593-.615 2.396-.065.244-.065.251.188.314.609.153 1.224.3 1.949.307.188 0 .37-.02.55-.063 1.036-.223 1.224-1.39.71-1.948a2.252 2.252 0 00-.782-.551"/><path d="M17.1 13.1c.545.357.95.824 1.063 1.47.084.48.007.94-.133 1.4-.182.576-.455 1.104-.923 1.516-.44.378-.958.57-1.531.639-.734.096-1.468.02-2.195-.11-.273-.048-.266-.048-.336.213-.16.624-.321 1.249-.475 1.873-.02.103-.063.103-.147.083a31.587 31.587 0 00-1.14-.275c-.097-.02-.118-.055-.09-.15l.503-1.964c.021-.103.014-.144-.098-.165-.286-.062-.566-.137-.853-.212-.084-.02-.126-.007-.147.089-.16.659-.328 1.31-.496 1.97-.028.103-.049.144-.175.11-.37-.103-.74-.186-1.111-.275-.105-.02-.12-.062-.098-.158.175-.673.342-1.345.517-2.011.021-.09.007-.117-.077-.137-.853-.206-1.706-.419-2.566-.632-.097-.02-.097-.055-.062-.137.202-.446.398-.892.594-1.345.035-.083.07-.096.154-.076.293.076.594.158.888.22.342.075.573-.069.657-.405.503-1.97 1.007-3.947 1.503-5.917a.662.662 0 00-.399-.79c-.272-.123-.566-.164-.86-.24-.09-.02-.181-.047-.272-.061-.07-.014-.091-.028-.07-.11.112-.412.217-.83.314-1.249.028-.096.056-.103.147-.082a204.692 204.692 0 002.566.631c.084.02.105-.007.126-.082.168-.673.342-1.339.51-2.018.021-.096.056-.103.14-.083.385.096.776.193 1.16.282.077.02.098.04.077.13l-.503 1.97c-.028.103.007.124.091.137.294.062.58.124.867.2.112.027.133-.014.154-.097.16-.638.328-1.283.482-1.922.028-.103.056-.116.154-.089.377.096.755.186 1.14.275.09.02.118.048.09.144-.175.666-.335 1.325-.51 1.99-.02.09-.02.13.084.165.594.206 1.167.453 1.678.83.49.365.88.81.964 1.428.133.975-.09 1.847-.944 2.465-.23.164-.496.26-.796.336.146.082.272.15.384.226M12.5.148C5.6.148 0 5.64 0 12.421s5.593 12.272 12.5 12.272S25 19.203 25 12.421 19.4.148 12.5.148"/><path d="M14.378 13.567c-.645-.251-1.333-.391-2.006-.545-.087-.02-.116 0-.138.077-.24.943-.485 1.892-.732 2.835-.021.09.015.111.087.125.225.05.442.112.667.161.6.14 1.202.258 1.825.265.174 0 .348-.007.521-.028.413-.063.805-.188 1.058-.53.326-.433.42-1.145-.138-1.69-.326-.307-.724-.503-1.144-.67"/></g></svg>