<svg width="98" height="70" xmlns="http://www.w3.org/2000/svg" xmlns:xlink="http://www.w3.org/1999/xlink"><defs><filter x="-8.5%" y="-9.6%" width="117.1%" height="126.9%" filterUnits="objectBoundingBox" id="a"><feMorphology radius=".5" operator="dilate" in="SourceAlpha" result="shadowSpreadOuter1"/><feOffset dy="2" in="shadowSpreadOuter1" result="shadowOffsetOuter1"/><feGaussianBlur stdDeviation="1.5" in="shadowOffsetOuter1" result="shadowBlurOuter1"/><feColorMatrix values="0 0 0 0 0.235294118 0 0 0 0 0.392156863 0 0 0 0 0.933333333 0 0 0 0.1 0" in="shadowBlurOuter1"/></filter><path d="M2.403.36h78a2 2 0 012 2v48a2 2 0 01-2 2h-78a2 2 0 01-2-2v-48a2 2 0 012-2z" id="b"/></defs><g fill="none" fill-rule="evenodd"><path d="M2 2h94l-1 66H2V2z" fill="#EEE" opacity=".303"/><g transform="translate(7.597 8.64)"><use fill="#000" filter="url(#a)" xlink:href="#b"/><use fill="#FFF" xlink:href="#b"/></g><path d="M84.595 47.779H53.5s-1.387-5.672 5.088-7.09c0 0 6.013-.472 6.475-1.89v-3.31s-2.081-.708-3.006-4.49c0 0-2.775-3.308 0-4.726v-5.672s.11-.6.569-1.418c.698-1.243 3.237-1.418 4.056-1.418 0 0 1.346-.066 2.604.029 1.212-.095 2.128-.029 2.128-.029.462.946 2.775 1.89 3.7 1.89.925 0 .925.946.925.946v5.672c2.775 1.418 0 4.727 0 4.727-.925 3.78-3.007 4.49-3.007 4.49v3.309c.463 1.418 6.476 1.89 6.476 1.89 6.475 1.418 5.087 7.09 5.087 7.09zM32.777 54.15H58.75v-2.73H32.777zm-8.955-19.114h17.015v-2.73H23.822zm0-7.281h17.015v-2.73H23.822zm0-9.102h17.015v-2.73H23.822zM14.866 54.15h14.33v-2.73h-14.33zm0-19.114h6.269v-2.73h-6.269zm0-7.281h6.269v-2.73h-6.269zm0-9.102h6.269v-2.73h-6.269z" fill="#F0F4FF"/><path stroke="#3C64EE" stroke-width="2" d="M91 69h6v-6M91 1h6v6M7 1H1v6m6 62H1v-6"/></g></svg>