<svg width="98" height="70" xmlns="http://www.w3.org/2000/svg" xmlns:xlink="http://www.w3.org/1999/xlink"><defs><filter x="-8.5%" y="-9.6%" width="117.1%" height="126.9%" filterUnits="objectBoundingBox" id="a"><feMorphology radius=".5" operator="dilate" in="SourceAlpha" result="shadowSpreadOuter1"/><feOffset dy="2" in="shadowSpreadOuter1" result="shadowOffsetOuter1"/><feGaussianBlur stdDeviation="1.5" in="shadowOffsetOuter1" result="shadowBlurOuter1"/><feColorMatrix values="0 0 0 0 0.235294118 0 0 0 0 0.392156863 0 0 0 0 0.933333333 0 0 0 0.1 0" in="shadowBlurOuter1"/></filter><path d="M9 8h78a2 2 0 012 2v48a2 2 0 01-2 2H9a2 2 0 01-2-2V10a2 2 0 012-2z" id="b"/></defs><g fill="none" fill-rule="evenodd"><path d="M2 2h94l-1 66H2V2z" fill="#EEE" opacity=".303"/><g transform="translate(1 1)"><use fill="#000" filter="url(#a)" xlink:href="#b"/><use fill="#FFF" xlink:href="#b"/></g><g fill="#EEF0F6"><path d="M52.692 46.076h10.267c.32 0 .579-.234.579-.528 0 0 0-1.902-1.54-2.603-.96-.446-.366-.106-1.54-.551-1.196-.445-1.348-.596-1.348-.596l-.023-1.034s.45-.317.579-1.267c.274.06.366-.294.389-.528.023-.234.167-.928-.168-.868.061-.468.13-.913.107-1.14-.084-.806-.686-1.629-2.226-1.69-1.303.061-2.142.891-2.225 1.69-.023.235.022.657.083 1.14-.343-.06-.19.656-.167.868.023.234.106.61.38.528.13.973.58 1.29.58 1.29l-.023 1.041s-.046.151-1.22.611c-1.196.445-.579.083-1.539.528-1.54.702-1.54 2.603-1.54 2.603.016.272.267.506.595.506zm-16.898 3.198h28.293v-1.252H35.794v1.252zm0-5.907h13.087v-1.252H35.794v1.252zm0-5.922h13.087v-1.253H35.794v1.253zm8.407-10.359c.26 1.758.854 2.754 1.265 3.237h8.278c.404-.49 1.029-1.464 1.265-3.237.77.212 1.044-.845 1.09-1.501.046-.634.473-2.648-.495-2.475.19-1.358.343-2.557.274-3.199-.236-2.263-1.944-4.617-6.242-4.783-3.659.166-6.03 2.543-6.266 4.783-.06.634.061 1.864.26 3.2-.96-.19-.534 1.84-.488 2.474.007.656.266 1.69 1.06 1.501z"/><path d="M64.809 53.716H34.112c-.874 0-1.596-.742-1.596-1.639v-4.291c1.193-.156 2.135-1.6 2.135-3.37 0-1.772-.934-3.215-2.135-3.371v-9.2c0-.897.722-1.638 1.596-1.638h30.697c.873 0 1.595.741 1.595 1.638v9.192c-1.193.156-2.135 1.6-2.135 3.37 0 1.772.935 3.215 2.135 3.371v4.291c.008.921-.722 1.647-1.595 1.647m4.156-9.309c0-1.77-.935-3.214-2.135-3.37v-9.192c0-1.139-.92-2.083-2.029-2.083H34.104c-1.11 0-2.028.945-2.028 2.083v9.192c-1.193.156-2.135 1.6-2.135 3.37 0 1.772.934 3.215 2.135 3.371v4.291c0 1.14.92 2.084 2.028 2.084h30.697c1.11 0 2.029-.944 2.029-2.083v-4.292c1.2-.148 2.135-1.615 2.135-3.37"/></g><path stroke="#3C64EE" stroke-width="2" d="M91 69h6v-6M91 1h6v6M7 1H1v6m6 62H1v-6"/></g></svg>