<svg width="98" height="70" xmlns="http://www.w3.org/2000/svg" xmlns:xlink="http://www.w3.org/1999/xlink"><defs><filter x="-8.5%" y="-9.6%" width="117.1%" height="126.9%" filterUnits="objectBoundingBox" id="a"><feMorphology radius=".5" operator="dilate" in="SourceAlpha" result="shadowSpreadOuter1"/><feOffset dy="2" in="shadowSpreadOuter1" result="shadowOffsetOuter1"/><feGaussianBlur stdDeviation="1.5" in="shadowOffsetOuter1" result="shadowBlurOuter1"/><feColorMatrix values="0 0 0 0 0.235294118 0 0 0 0 0.392156863 0 0 0 0 0.933333333 0 0 0 0.1 0" in="shadowBlurOuter1"/></filter><path d="M9 8h78a2 2 0 012 2v48a2 2 0 01-2 2H9a2 2 0 01-2-2V10a2 2 0 012-2z" id="b"/></defs><g fill="none" fill-rule="evenodd"><path d="M2 2h94l-1 66H2V2z" fill="#EEE" opacity=".303"/><g transform="translate(1 1)"><use fill="#000" filter="url(#a)" xlink:href="#b"/><use fill="#FFF" xlink:href="#b"/></g><path d="M42.257 18.908h6.557v-2.812h-6.557zm8.43 0h29.04v-2.812h-29.04zm-8.43 7.498h6.557v-2.812h-6.557zm8.43 0h29.04v-2.812h-29.04zm-8.43 8.436h6.557V32.03h-6.557zm8.43 0h29.04V32.03h-29.04zM21.648 47.964H35.7v-2.812H21.65zm17.798 0h40.28v-2.812h-40.28zm-8.43-22.495c0 5.176-4.194 9.373-9.368 9.373-5.173 0-9.367-4.197-9.367-9.373 0-5.177 4.194-9.373 9.367-9.373 5.174 0 9.368 4.196 9.368 9.373m-9.368 28.119H35.7v-2.812H21.65zm17.798 0h40.28v-2.812h-40.28z" fill="#EFF2FA"/><path stroke="#3C64EE" stroke-width="2" d="M91 69h6v-6M91 1h6v6M7 1H1v6m6 62H1v-6"/></g></svg>