<svg width="117" height="111" xmlns="http://www.w3.org/2000/svg"><defs><linearGradient x1="50%" y1="0%" x2="50%" y2="100%" id="a"><stop stop-color="#FFC82E" offset="0%"/><stop stop-color="#FEA12A" offset="100%"/></linearGradient></defs><g fill="none" fill-rule="evenodd"><ellipse fill="#F3F3F3" cx="58" cy="105.883" rx="31" ry="4.883"/><path fill="#FFC22D" opacity=".34" d="M77.764 0l2.335 4.27 4.27 2.336L80.1 8.94l-2.335 4.27-2.336-4.27-4.27-2.335 4.27-2.336z"/><path fill-opacity=".35" fill="#FFC22D" d="M112.023 41.858l1.623 2.966 2.966 1.622-2.966 1.623-1.623 2.966-1.622-2.966-2.966-1.623 2.966-1.622z"/><path d="M21.62 21.215a3.36 3.36 0 11-5.82 3.362 3.361 3.361 0 115.82-3.362" fill-opacity=".2" fill="#FFC22D"/><path fill="#FFC82E" opacity=".476" d="M7.692 50.23l2.72 4.97 4.972 2.72-4.973 2.72-2.719 4.972-2.72-4.973L0 57.92l4.973-2.72z"/><path d="M88 56c0 16.569-13.431 30-30 30-16.569 0-30-13.431-30-30 0-16.569 13.431-30 30-30 16.569 0 30 13.431 30 30" fill="url(#a)"/><path d="M44.5 60a3.5 3.5 0 11-.001-6.999A3.5 3.5 0 0144.5 60zm13 0a3.5 3.5 0 11-.001-6.999A3.5 3.5 0 0157.5 60zm13 0a3.5 3.5 0 11-.001-6.999A3.5 3.5 0 0170.5 60z" fill="#FFF"/></g></svg>