<svg width="32" height="32" xmlns="http://www.w3.org/2000/svg"><g fill="none" fill-rule="evenodd"><path d="M10.162 17.11h4.536a.77.77 0 01.753.936l-1.162 5.309 7.08-8.35h-3.285a.772.772 0 01-.709-1.075l2.666-6.22h-5.628l-4.251 9.4zm2.711 9.878a.77.77 0 01-.753-.936l1.62-7.4H8.965a.77.77 0 01-.702-1.09l4.95-10.94a.771.771 0 01.702-.453h7.294a.772.772 0 01.709 1.075l-2.666 6.219h3.78a.77.77 0 01.589 1.27l-10.16 11.982a.772.772 0 01-.589.273z" fill="#3C64EE"/><path d="M16 1.542C8.028 1.542 1.542 8.028 1.542 16S8.028 30.458 16 30.458 30.458 23.972 30.458 16 23.972 1.542 16 1.542M16 32C7.178 32 0 24.822 0 16S7.178 0 16 0s16 7.178 16 16-7.178 16-16 16" fill="#0F3256"/></g></svg>