<svg width="345" height="315" xmlns="http://www.w3.org/2000/svg"><g fill="none" fill-rule="evenodd"><path fill="#FFF9F0" d="M0 34h345v35H0z"/><path fill="#F7F9FF" d="M0 34h345v35H0z"/><path fill="#CCD8FF" d="M0 0h345v35H0z"/><path fill="#F7F9FF" d="M0 104h345v35H0zm0 70h345v35H0zm0 70h345v35H0z"/><text font-family="PingFangSC-Regular, PingFang SC" font-size="12" fill="#333"><tspan x="34" y="22">等级</tspan></text><text font-family="PingFangSC-Regular, PingFang SC" font-size="12" fill="#333"><tspan x="102" y="22">V1</tspan></text><text font-family="PingFangSC-Regular, PingFang SC" font-size="12" fill="#333"><tspan x="153" y="22">V2</tspan></text><text font-family="PingFangSC-Regular, PingFang SC" font-size="12" fill="#333"><tspan x="207" y="22">V3</tspan></text><text font-family="PingFangSC-Regular, PingFang SC" font-size="12" fill="#333"><tspan x="260" y="22">V4</tspan></text><text font-family="PingFangSC-Regular, PingFang SC" font-size="12" fill="#333"><tspan x="314" y="22">V5</tspan></text><text font-family="PingFangSC-Regular, PingFang SC" font-size="12" fill="#666"><tspan x="19" y="56">签到(FBP)</tspan></text><text font-family="PingFangSC-Regular, PingFang SC" font-size="12" fill="#666"><tspan x="10" y="161">提现手续费券</tspan></text><text font-family="PingFangSC-Regular, PingFang SC" font-size="12" fill="#666"><tspan x="22" y="91">生日礼包</tspan></text><text font-family="PingFangSC-Regular, PingFang SC" font-size="12" fill="#666"><tspan x="16" y="126">周年庆礼包</tspan></text><text font-family="PingFangSC-Regular, PingFang SC" font-size="12" fill="#666"><tspan x="16" y="196">理财优惠券</tspan></text><text font-family="PingFangSC-Regular, PingFang SC" font-size="12" fill="#666"><tspan x="22" y="231">投资周报</tspan></text><text font-family="PingFangSC-Regular, PingFang SC" font-size="12" fill="#666"><tspan x="28" y="266">礼品卡</tspan></text><text font-family="PingFangSC-Regular, PingFang SC" font-size="12" fill="#666"><tspan x="22" y="301">专属顾问</tspan></text><path d="M107.308 127s1.614-2.898 3.471-5.406c1.434-1.935 3.221-3.63 3.221-3.63l-.373-.964s-2.12 1.37-3.836 3.052c-1.744 1.707-3.083 3.729-3.083 3.729l-2.632-2.294-1.076 1.066 4.308 4.447zm52-35s1.614-2.898 3.471-5.406c1.434-1.935 3.221-3.63 3.221-3.63l-.373-.964s-2.12 1.37-3.836 3.052c-1.744 1.707-3.083 3.729-3.083 3.729l-2.632-2.294L155 87.553 159.308 92zm54 0s1.614-2.898 3.471-5.406c1.434-1.935 3.221-3.63 3.221-3.63l-.373-.964s-2.12 1.37-3.836 3.052c-1.744 1.707-3.083 3.729-3.083 3.729l-2.632-2.294L209 87.553 213.308 92zm53 0s1.614-2.898 3.471-5.406c1.434-1.935 3.221-3.63 3.221-3.63l-.373-.964s-2.12 1.37-3.836 3.052c-1.744 1.707-3.083 3.729-3.083 3.729l-2.632-2.294L262 87.553 266.308 92zm54 0s1.614-2.898 3.471-5.406c1.434-1.935 3.221-3.63 3.221-3.63l-.373-.964s-2.12 1.37-3.836 3.052c-1.744 1.707-3.083 3.729-3.083 3.729l-2.632-2.294L316 87.553 320.308 92zm0 35s1.614-2.898 3.471-5.406c1.434-1.935 3.221-3.63 3.221-3.63l-.373-.964s-2.12 1.37-3.836 3.052c-1.744 1.707-3.083 3.729-3.083 3.729l-2.632-2.294-1.076 1.066 4.308 4.447zm0 35s1.614-2.898 3.471-5.406c1.434-1.935 3.221-3.63 3.221-3.63l-.373-.964s-2.12 1.37-3.836 3.052c-1.744 1.707-3.083 3.729-3.083 3.729l-2.632-2.294-1.076 1.066 4.308 4.447zm0 35s1.614-2.898 3.471-5.406c1.434-1.935 3.221-3.63 3.221-3.63l-.373-.964s-2.12 1.37-3.836 3.052c-1.744 1.707-3.083 3.729-3.083 3.729l-2.632-2.294-1.076 1.066 4.308 4.447zm0 35s1.614-2.898 3.471-5.406c1.434-1.935 3.221-3.63 3.221-3.63l-.373-.964s-2.12 1.37-3.836 3.052c-1.744 1.707-3.083 3.729-3.083 3.729l-2.632-2.294-1.076 1.066 4.308 4.447zm0 35s1.614-2.898 3.471-5.406c1.434-1.935 3.221-3.63 3.221-3.63l-.373-.964s-2.12 1.37-3.836 3.052c-1.744 1.707-3.083 3.729-3.083 3.729l-2.632-2.294-1.076 1.066 4.308 4.447zm0 35s1.614-2.898 3.471-5.406c1.434-1.935 3.221-3.63 3.221-3.63l-.373-.964s-2.12 1.37-3.836 3.052c-1.744 1.707-3.083 3.729-3.083 3.729l-2.632-2.294-1.076 1.066 4.308 4.447zm-54-175s1.614-2.898 3.471-5.406c1.434-1.935 3.221-3.63 3.221-3.63l-.373-.964s-2.12 1.37-3.836 3.052c-1.744 1.707-3.083 3.729-3.083 3.729l-2.632-2.294-1.076 1.066 4.308 4.447zm0 35s1.614-2.898 3.471-5.406c1.434-1.935 3.221-3.63 3.221-3.63l-.373-.964s-2.12 1.37-3.836 3.052c-1.744 1.707-3.083 3.729-3.083 3.729l-2.632-2.294-1.076 1.066 4.308 4.447zm0 35s1.614-2.898 3.471-5.406c1.434-1.935 3.221-3.63 3.221-3.63l-.373-.964s-2.12 1.37-3.836 3.052c-1.744 1.707-3.083 3.729-3.083 3.729l-2.632-2.294-1.076 1.066 4.308 4.447zm0 35s1.614-2.898 3.471-5.406c1.434-1.935 3.221-3.63 3.221-3.63l-.373-.964s-2.12 1.37-3.836 3.052c-1.744 1.707-3.083 3.729-3.083 3.729l-2.632-2.294-1.076 1.066 4.308 4.447zm0 70s1.614-2.898 3.471-5.406c1.434-1.935 3.221-3.63 3.221-3.63l-.373-.964s-2.12 1.37-3.836 3.052c-1.744 1.707-3.083 3.729-3.083 3.729l-2.632-2.294-1.076 1.066 4.308 4.447zm-53-175s1.614-2.898 3.471-5.406c1.434-1.935 3.221-3.63 3.221-3.63l-.373-.964s-2.12 1.37-3.836 3.052c-1.744 1.707-3.083 3.729-3.083 3.729l-2.632-2.294-1.076 1.066 4.308 4.447zm0 35s1.614-2.898 3.471-5.406c1.434-1.935 3.221-3.63 3.221-3.63l-.373-.964s-2.12 1.37-3.836 3.052c-1.744 1.707-3.083 3.729-3.083 3.729l-2.632-2.294-1.076 1.066 4.308 4.447zm0 70s1.614-2.898 3.471-5.406c1.434-1.935 3.221-3.63 3.221-3.63l-.373-.964s-2.12 1.37-3.836 3.052c-1.744 1.707-3.083 3.729-3.083 3.729l-2.632-2.294-1.076 1.066 4.308 4.447zm0 70s1.614-2.898 3.471-5.406c1.434-1.935 3.221-3.63 3.221-3.63l-.373-.964s-2.12 1.37-3.836 3.052c-1.744 1.707-3.083 3.729-3.083 3.729l-2.632-2.294-1.076 1.066 4.308 4.447zm-54-175s1.614-2.898 3.471-5.406c1.434-1.935 3.221-3.63 3.221-3.63l-.373-.964s-2.12 1.37-3.836 3.052c-1.744 1.707-3.083 3.729-3.083 3.729l-2.632-2.294-1.076 1.066 4.308 4.447z" fill="#999"/><text font-family="PingFangSC-Regular, PingFang SC" font-size="12" fill="#666"><tspan x="106" y="56">1</tspan></text><text font-family="PingFangSC-Regular, PingFang SC" font-size="12" fill="#666"><tspan x="157" y="56">5</tspan></text><text font-family="PingFangSC-Regular, PingFang SC" font-size="12" fill="#666"><tspan x="208" y="56">10</tspan></text><text font-family="PingFangSC-Regular, PingFang SC" font-size="12" fill="#666"><tspan x="261" y="56">15</tspan></text><text font-family="PingFangSC-Regular, PingFang SC" font-size="12" fill="#666"><tspan x="314" y="56">30</tspan></text><path d="M109.192 87.682C111.149 85.9 113 84.5 113 84.5l-1.929-2.5-2.72 4.702-2.422-2.827L104 85.75l3.528 2.374L105.286 92c.657-1.066 1.765-2.274 2.937-3.407l4.134 2.782-3.165-3.693zm0 70A61.296 61.296 0 01113 154.5l-1.929-2.5-2.72 4.702-2.422-2.827L104 155.75l3.528 2.374-2.242 3.876c.657-1.066 1.765-2.274 2.937-3.407l4.134 2.782-3.165-3.693zm52 0A61.296 61.296 0 01165 154.5l-1.929-2.5-2.72 4.702-2.422-2.827L156 155.75l3.528 2.374-2.242 3.876c.657-1.066 1.765-2.274 2.937-3.407l4.134 2.782-3.165-3.693zm-52 35A61.296 61.296 0 01113 189.5l-1.929-2.5-2.72 4.702-2.422-2.827L104 190.75l3.528 2.374-2.242 3.876c.657-1.066 1.765-2.274 2.937-3.407l4.134 2.782-3.165-3.693zm0 35A61.296 61.296 0 01113 224.5l-1.929-2.5-2.72 4.702-2.422-2.827L104 225.75l3.528 2.374-2.242 3.876c.657-1.066 1.765-2.274 2.937-3.407l4.134 2.782-3.165-3.693zm0 35A61.296 61.296 0 01113 259.5l-1.929-2.5-2.72 4.702-2.422-2.827L104 260.75l3.528 2.374-2.242 3.876c.657-1.066 1.765-2.274 2.937-3.407l4.134 2.782-3.165-3.693zm0 35A61.296 61.296 0 01113 294.5l-1.929-2.5-2.72 4.702-2.422-2.827L104 295.75l3.528 2.374-2.242 3.876c.657-1.066 1.765-2.274 2.937-3.407l4.134 2.782-3.165-3.693zm106-35A61.296 61.296 0 01219 259.5l-1.929-2.5-2.72 4.702-2.422-2.827L210 260.75l3.528 2.374-2.242 3.876c.657-1.066 1.765-2.274 2.937-3.407l4.134 2.782-3.165-3.693zm-54-70A61.296 61.296 0 01165 189.5l-1.929-2.5-2.72 4.702-2.422-2.827L156 190.75l3.528 2.374-2.242 3.876c.657-1.066 1.765-2.274 2.937-3.407l4.134 2.782-3.165-3.693zm0 35A61.296 61.296 0 01165 224.5l-1.929-2.5-2.72 4.702-2.422-2.827L156 225.75l3.528 2.374-2.242 3.876c.657-1.066 1.765-2.274 2.937-3.407l4.134 2.782-3.165-3.693zm0 35A61.296 61.296 0 01165 259.5l-1.929-2.5-2.72 4.702-2.422-2.827L156 260.75l3.528 2.374-2.242 3.876c.657-1.066 1.765-2.274 2.937-3.407l4.134 2.782-3.165-3.693zm0 35A61.296 61.296 0 01165 294.5l-1.929-2.5-2.72 4.702-2.422-2.827L156 295.75l3.528 2.374-2.242 3.876c.657-1.066 1.765-2.274 2.937-3.407l4.134 2.782-3.165-3.693zm107-35A61.296 61.296 0 01272 259.5l-1.929-2.5-2.72 4.702-2.422-2.827L263 260.75l3.528 2.374-2.242 3.876c.657-1.066 1.765-2.274 2.937-3.407l4.134 2.782-3.165-3.693zm-53-70A61.296 61.296 0 01219 189.5l-1.929-2.5-2.72 4.702-2.422-2.827L210 190.75l3.528 2.374-2.242 3.876c.657-1.066 1.765-2.274 2.937-3.407l4.134 2.782-3.165-3.693z" fill="#DDD"/><path fill="#CCD8FF" d="M0 34h1v281H0zm344 0h1v281h-1z"/><path fill="#CCD8FF" d="M0 314h344v1H0z"/></g></svg>