<svg width="48" height="48" xmlns="http://www.w3.org/2000/svg"><defs><linearGradient x1="117.422%" y1="50%" x2="0%" y2="50%" id="a"><stop stop-color="#3C64EE" offset="0%"/><stop stop-color="#829DFC" offset="100%"/></linearGradient></defs><g fill="none" fill-rule="evenodd"><circle fill="#EBF0FF" cx="24" cy="24" r="24"/><path d="M24.03 12c-5.741 0-10.56 3.79-11.875 8.9 0 0-3.294.498-3.15 3.673.147 3.174 3.622 3.367 3.622 3.367.04.102.77-.098 1.035-.142a10.328 10.328 0 01-.844-4.085c0-5.933 5.019-10.738 11.213-10.738 6.194 0 11.21 4.809 11.21 10.738 0 4.73-3.194 8.745-7.631 10.177-.287.094-.586-.031-.586-.031s-.753-.134-1.693.119c-.466.128-.664.602-.637 1.015.034.494.23.85.77.928.697.104 1.684.224 2.056-.487.1-.194.21-.552.449-.63 3.428-1.116 6.174-3.65 7.473-6.87 0 0 3.455-.39 3.556-3.44.103-3.05-3.091-3.59-3.091-3.59C34.595 15.79 29.773 12 24.03 12m-5.085 13.514c5.29 4.278 10.17 0 10.17 0s0 4.424-5.085 4.424-5.085-4.424-5.085-4.424m5.085-10.74c-5.156 0-9.334 4-9.334 8.939 0 2.42 1.004 4.61 2.627 6.218a11.858 11.858 0 002.435 1.64c.514.257 1.039.49 1.573.7a9.826 9.826 0 002.696.38c5.156 0 9.332-4.004 9.332-8.941.003-4.935-4.176-8.935-9.33-8.935" fill="url(#a)"/></g></svg>