<svg width="345" height="211" xmlns="http://www.w3.org/2000/svg"><g fill="none" fill-rule="evenodd"><path fill="#CCD8FF" d="M0 0h345v35H0z"/><path fill="#F7F9FF" d="M0 70h345v35H0zm0 70h345v35H0z"/><text font-family="PingFangSC-Regular, PingFang SC" font-size="13" fill="#666"><tspan x="31" y="93">V2</tspan></text><text font-family="PingFangSC-Regular, PingFang SC" font-size="13" fill="#666"><tspan x="125" y="93">初级会员</tspan></text><text font-family="PingFangSC-Regular, PingFang SC" font-size="13" fill="#666"><tspan x="259" y="58">≤1000</tspan></text><text font-family="PingFangSC-Regular, PingFang SC" font-size="13" fill="#666"><tspan x="243" y="93">1001-10000</tspan></text><text font-family="PingFangSC-Regular, PingFang SC" font-size="13" fill="#666"><tspan x="32" y="58">V1</tspan></text><text font-family="PingFangSC-Regular, PingFang SC" font-size="12" fill="#333"><tspan x="259" y="23">会员值</tspan></text><text font-family="PingFangSC-Regular, PingFang SC" font-size="12" fill="#333"><tspan x="26" y="23">等级</tspan></text><text font-family="PingFangSC-Regular, PingFang SC" font-size="12" fill="#333"><tspan x="137" y="23">称谓</tspan></text><text font-family="PingFangSC-Regular, PingFang SC" font-size="13" fill="#666"><tspan x="125" y="58">普通会员</tspan></text><text font-family="PingFangSC-Regular, PingFang SC" font-size="13" fill="#666"><tspan x="31" y="128">V3</tspan></text><text font-family="PingFangSC-Regular, PingFang SC" font-size="13" fill="#666"><tspan x="238" y="128">10001-50000</tspan></text><text font-family="PingFangSC-Regular, PingFang SC" font-size="13" fill="#666"><tspan x="125" y="128">金牌会员</tspan></text><text font-family="PingFangSC-Regular, PingFang SC" font-size="13" fill="#666"><tspan x="31" y="163">V4</tspan></text><text font-family="PingFangSC-Regular, PingFang SC" font-size="13" fill="#666"><tspan x="236" y="163">50001-99999</tspan></text><text font-family="PingFangSC-Regular, PingFang SC" font-size="13" fill="#666"><tspan x="31" y="198">V5</tspan></text><text font-family="PingFangSC-Regular, PingFang SC" font-size="13" fill="#666"><tspan x="251" y="198">≥100000</tspan></text><text font-family="PingFangSC-Regular, PingFang SC" font-size="13" fill="#666"><tspan x="124" y="164">钻石会员</tspan></text><text font-family="PingFangSC-Regular, PingFang SC" font-size="13" fill="#666"><tspan x="125" y="198">至尊会员</tspan></text><path fill="#CCD8FF" d="M0 34h1v177H0zm344 0h1v177h-1z"/><path fill="#CCD8FF" d="M1 210h344v1H1z"/></g></svg>