<svg width="48" height="48" xmlns="http://www.w3.org/2000/svg"><defs><linearGradient x1="109.34%" y1="50%" x2="0%" y2="50%" id="a"><stop stop-color="#3C64EE" offset="0%"/><stop stop-color="#829DFC" offset="100%"/></linearGradient><linearGradient x1="109.34%" y1="50%" x2="0%" y2="50%" id="b"><stop stop-color="#3C64EE" offset="0%"/><stop stop-color="#829DFC" offset="100%"/></linearGradient><linearGradient x1="109.34%" y1="50%" x2="0%" y2="50%" id="c"><stop stop-color="#3C64EE" offset="0%"/><stop stop-color="#829DFC" offset="100%"/></linearGradient><linearGradient x1="109.34%" y1="50%" x2="0%" y2="50%" id="d"><stop stop-color="#3C64EE" offset="0%"/><stop stop-color="#829DFC" offset="100%"/></linearGradient></defs><g fill="none" fill-rule="evenodd"><circle fill="#EBF0FF" cx="24" cy="24" r="24"/><path d="M13.814 33.944H12s.06.968.484 1.33c.242.182.967.544 1.148.544.363.061 20.132 0 20.132 0s.785-.06 1.269-.302c.423-.242.725-.483.846-.786.06-.302.12-.786.12-.786h-1.873v-4.836s-.725 1.148-3.143 1.148c-2.48 0-3.325-1.148-3.325-1.148s-.846 1.148-3.627 1.148c-2.781 0-3.628-1.148-3.628-1.148s-.725 1.148-3.204 1.148c-2.478 0-3.385-1.148-3.385-1.148v4.836z" fill="url(#a)"/><path d="M14.842 26.327c-.726.665-.847 1.21-.847 1.21s.12 1.148 1.572 1.571c1.088.364 1.39.243 1.995.243.604-.061.907-.061 1.27-.243.362-.121.604-.302.906-.725.12-.182.18-.605.303-.726.12-.12.18-.181.362-.181.12 0 .303.061.484.605.18.483.604.785 1.209.967.544.181.967.242 2.116.242 1.269 0 2.237-.363 2.66-.665.423-.303.423-.605.483-.786.06-.182.242-.423.424-.363.12 0 .302.061.423.242.06.181.18.907.846 1.209.665.302.847.302 1.874.363 1.33.061 1.935-.303 2.479-.726.544-.422.604-1.027.604-1.027s-.181-.847-.786-1.33c-.604-.484-1.572-.665-1.572-.665H16.353c.034 0-.786.121-1.511.785z" fill="url(#b)"/><path d="M21.25 21.552v2.479s.06.302.301.422c.182.182.484.243.484.243h3.083s.302-.122.484-.302c.181-.182.242-.545.242-.545v-3.567s-.06 0 .12-.362c.182-.424.605-1.09.605-1.09s.121-.361-.06-.603c-.182-.241-.302-.302-.484-.302-.18 0-.544.24-1.33.483-.786.182-1.45.303-1.935.303-.362 0-.725 0-1.027.12-.363.12-.665.364-.907.665-.12.182-.242.303-.363.544-.06.12-.06.303-.12.424v.362c.06.243.12.484.302.665.302.06.604.06.604.06" fill="url(#c)"/><path d="M23.607 17.32c-.06-.12-.604-.303-.726-.363-.846-.605-.846-1.753-.362-2.6.484-.785.604-.906.786-1.329.241-.424.363-1.028.363-1.028 0 .06.664.665.785.725.242.242.424.544.605.847.423.785.846 1.45.544 2.357-.182.726-.847 1.21-1.572 1.391 0 0 .484-.665.484-1.27 0-.604-.06-1.148-.182-1.39a4.963 4.963 0 01-.242-.665s-.06.604-.302.846c-.483.605-.665 1.088-.423 1.875l.242.604z" fill="url(#d)"/></g></svg>