<svg width="48" height="48" xmlns="http://www.w3.org/2000/svg"><defs><linearGradient x1="117.422%" y1="50%" x2="0%" y2="50%" id="a"><stop stop-color="#3C64EE" offset="0%"/><stop stop-color="#829DFC" offset="100%"/></linearGradient></defs><g fill="none" fill-rule="evenodd"><circle fill="#EBF0FF" cx="24" cy="24" r="24"/><path d="M21.182 12a2.543 2.543 0 000 5.088c.73 0 2.546-.005 2.546-.005l-.002-2.539A2.544 2.544 0 0021.182 12m5.681 0a2.543 2.543 0 00-2.543 2.544l-.003 2.539s1.816.005 2.546.005a2.544 2.544 0 000-5.088m6.989 12.075h-8.084V35.97h8.084a.629.629 0 00.446-.186.626.626 0 00.185-.446V24.707a.626.626 0 00-.185-.446.629.629 0 00-.446-.186m1.516-6.312h-9.6v5.051h9.6a.631.631 0 00.631-.631v-3.789a.631.631 0 00-.631-.631m-21.852 6.944v10.631a.63.63 0 00.632.632h8.083V24.075h-8.083a.631.631 0 00-.632.632M12 18.394v3.789c0 .168.067.328.185.447.119.118.28.184.447.184h9.599v-5.051h-9.599a.635.635 0 00-.447.184.635.635 0 00-.185.447" fill="url(#a)"/></g></svg>