<svg width="48" height="48" xmlns="http://www.w3.org/2000/svg"><defs><linearGradient x1="117.422%" y1="50%" x2="0%" y2="50%" id="a"><stop stop-color="#3C64EE" offset="0%"/><stop stop-color="#829DFC" offset="100%"/></linearGradient></defs><g fill="none" fill-rule="evenodd"><circle fill="#EBF0FF" cx="24" cy="24" r="24"/><path d="M26.688 21.075a7.94 7.94 0 00-1.459 1.725c-.437.75-.802 1.65-1.094 2.55-.218.675-.365 1.575-.437 2.55h-2.26c.219-1.35.51-2.55.875-3.45.364-.974 1.02-1.95 1.822-2.999h-4.083v-1.95h6.636v1.574zm5.03 10.275V13.725c0-.975-.73-1.725-1.677-1.725h-11.01L14 17.175V31.35c0 .975.729 1.725 1.677 1.725h14.364c.948 0 1.677-.75 1.677-1.725zm1.604-16.425v1.5c.146 0 .22.075.22.225v17.625c0 .15-.074.225-.22.225H18.958c-.145 0-.218-.075-.218-.225h-1.458c0 .975.729 1.725 1.676 1.725h14.364c.949 0 1.678-.75 1.678-1.725V16.651c0-.976-.73-1.726-1.678-1.726z" fill="url(#a)"/></g></svg>