<svg width="48" height="48" xmlns="http://www.w3.org/2000/svg"><defs><linearGradient x1="117.422%" y1="50%" x2="0%" y2="50%" id="a"><stop stop-color="#3C64EE" offset="0%"/><stop stop-color="#829DFC" offset="100%"/></linearGradient></defs><g fill="none" fill-rule="evenodd"><circle fill="#EBF0FF" cx="24" cy="24" r="24"/><path d="M27.747 23.426l-4.776 4.776a.86.86 0 01-1.209-1.215l4.776-4.77a.855.855 0 111.21 1.21m-7.937 2.468a.852.852 0 01-.607-.254.855.855 0 010-1.209l4.776-4.777a.855.855 0 111.209 1.209l-4.77 4.78a.855.855 0 01-.608.251m15.478-5.418l-1.817-1.873a.849.849 0 00-.6-.26c-.219.02-.449.083-.609.243-.762.744-2.078.732-2.823-.034a1.988 1.988 0 01-.564-1.416c.01-.527.22-1.028.601-1.402a.857.857 0 00.02-1.209l-1.82-1.873c-.832-.856-2.3-.873-3.163-.038l-11.839 11.6A2.211 2.211 0 0012 25.79a2.21 2.21 0 00.635 1.587l1.817 1.87a.84.84 0 00.601.261.921.921 0 00.608-.244c.757-.74 2.073-.725 2.818.037.368.384.571.885.568 1.416a1.995 1.995 0 01-.6 1.402.857.857 0 00-.02 1.21l1.82 1.873c.423.438.991.675 1.6.675a2.22 2.22 0 001.562-.638l11.842-11.606c.428-.417.668-.978.672-1.576a2.194 2.194 0 00-.634-1.58" fill="url(#a)"/></g></svg>