<svg width="48" height="48" xmlns="http://www.w3.org/2000/svg"><defs><linearGradient x1="117.422%" y1="50%" x2="0%" y2="50%" id="a"><stop stop-color="#3C64EE" offset="0%"/><stop stop-color="#829DFC" offset="100%"/></linearGradient><linearGradient x1="117.422%" y1="50%" x2="0%" y2="50%" id="b"><stop stop-color="#3C64EE" offset="0%"/><stop stop-color="#829DFC" offset="100%"/></linearGradient></defs><g fill="none" fill-rule="evenodd"><circle fill="#EBF0FF" cx="24" cy="24" r="24"/><path d="M21.467 7.435h-8.452c-.39 0-.704-.37-.704-.826 0-.456.315-.826.704-.826h8.452c.389 0 .704.37.704.826 0 .456-.315.826-.704.826m0 5.781h-8.452c-.39 0-.704-.37-.704-.826 0-.456.315-.826.704-.826h8.452c.389 0 .704.37.704.826 0 .456-.315.826-.704.826m5.908-2.767a.95.95 0 00.428-.456 1.39 1.39 0 00-.072-1.291 1.08 1.08 0 00-.534-.456 1.125 1.125 0 01-.587-.495 1.234 1.234 0 01-.178-.684 1.24 1.24 0 01.249-.663c.154-.217.375-.363.659-.439a.868.868 0 00.516-.398c.107-.19.154-.393.142-.608a1.278 1.278 0 00-.213-.628 1.241 1.241 0 00-.516-.456c-.285-.1-.487-.252-.606-.456a.998.998 0 01-.142-.626c.023-.213.103-.417.23-.588.13-.178.305-.305.518-.38a.78.78 0 00.463-.418c.094-.204.135-.406.124-.61a1.114 1.114 0 00-.178-.55.502.502 0 00-.444-.247H8.402v19H27.02a.5.5 0 00.444-.248c.107-.165.173-.348.196-.55a1.306 1.306 0 00-.09-.628.878.878 0 00-.408-.475c-.285-.152-.492-.34-.623-.569a1.229 1.229 0 01-.178-.685c.012-.228.094-.443.25-.645a1.18 1.18 0 01.658-.419.791.791 0 00.463-.398c.094-.19.135-.406.124-.647a1.444 1.444 0 00-.214-.684 1.183 1.183 0 00-.516-.474c-.474-.254-.7-.595-.677-1.027.025-.43.333-.798.926-1.102" fill="url(#a)" transform="translate(10 15)"/><path d="M.32.437C.107.728 0 1.217 0 1.901v4.027c0 .28.06.476.177.59.12.113.31.195.571.245.332.052.646.243.942.571.298.33.445.786.445 1.37 0 .38-.059.701-.177.968a2.09 2.09 0 01-.428.645 1.753 1.753 0 01-.497.361c-.167.076-.297.114-.393.114-.26.051-.432.146-.515.285-.083.14-.125.35-.125.628v5.471c0 .71.13 1.19.391 1.444.262.253.712.368 1.353.342.19 0 .54.006 1.051.02.51.012 1.026.018 1.548.018H6.3V0H1.744C1.008 0 .534.145.32.437" fill="url(#b)" transform="translate(10 15)"/></g></svg>