<svg width="48" height="48" xmlns="http://www.w3.org/2000/svg"><defs><linearGradient x1="117.422%" y1="50%" x2="0%" y2="50%" id="a"><stop stop-color="#3C64EE" offset="0%"/><stop stop-color="#829DFC" offset="100%"/></linearGradient></defs><g fill="none" fill-rule="evenodd"><circle fill="#EBF0FF" cx="24" cy="24" r="24"/><path d="M23.971 26.915l-5.656 7.084H29.93l-5.66-7.084h-.299zm-8.916-2.93c-.734-2.676.21-5.505 3.822-5.885 2.184-.23 4.284 1.287 5.639 2.573 1.408-1.328 3.61-2.915 5.816-2.573 3.094.479 4.049 3.257 3.468 5.884h4.174l-.017-5.62c-.005-2.246-.96-4.334-3.508-4.326L14.312 14c-2.548.009-4.316 2.219-4.312 4.465l.018 5.518 5.037.001zm7.925-1.604c-1.134-.766-2.495-1.355-3.148-1.358a.512.512 0 00-.182.029c-.768.278-.81 1.405-.727 1.963.03.194.116.597.338.97h3.66l.059-1.604zm15.001 4.534h-8.017l4.485 5.22-3.629-.911L30.144 34h3.981c2.554-.01 3.881-1.422 3.875-3.67l-.019-3.415zm-24.188 5.22l4.485-5.22H10.03l.01 3.515c.009 2.246 1.203 3.579 3.753 3.568H18.1l-.677-2.776-3.631.913zm15.979-8.15c.206-.36.291-.743.321-.93.087-.555.053-1.684-.713-1.968a.51.51 0 00-.18-.029c-.654-.003-2.02.575-3.159 1.335l.046 1.591h3.685z" fill="url(#a)"/></g></svg>