<svg width="21" height="25" xmlns="http://www.w3.org/2000/svg"><g fill="none" fill-rule="evenodd"><path d="M19.29 23.139H1.71V10.253h3.467c.076.023.155.04.238.04a.8.8 0 00.238-.04h9.662c.075.023.155.04.238.04a.806.806 0 00.238-.04h3.5v12.886zM6.27 5.316c0-1.475 1.17-2.675 2.611-2.675h3.206c1.44 0 2.611 1.2 2.611 2.675v3.185H6.27V5.316zm13.876 3.185h-3.738V5.316c0-2.44-1.938-4.425-4.32-4.425H8.88C6.498.89 4.56 2.875 4.56 5.316v3.185H.856A.866.866 0 000 9.378v14.637c0 .484.383.876.856.876h19.29a.866.866 0 00.854-.876V9.378a.867.867 0 00-.854-.877z" fill="#0F3256"/><path d="M10.5 19.075l-2.194-2.139 2.194-2.14 2.194 2.14-2.194 2.14zm.605-6.047a.866.866 0 00-1.21 0l-3.403 3.319a.823.823 0 000 1.178l3.404 3.319a.866.866 0 001.209 0l3.404-3.319a.82.82 0 000-1.178l-3.404-3.32z" fill="#3C64EE"/></g></svg>