<svg width="20" height="20" xmlns="http://www.w3.org/2000/svg"><defs><filter x="-8.3%" y="-16.2%" width="116.6%" height="133.5%" filterUnits="objectBoundingBox" id="a"><feMorphology radius="1" operator="dilate" in="SourceAlpha" result="shadowSpreadOuter1"/><feOffset dy="1" in="shadowSpreadOuter1" result="shadowOffsetOuter1"/><feGaussianBlur stdDeviation="5" in="shadowOffsetOuter1" result="shadowBlurOuter1"/><feColorMatrix values="0 0 0 0 0.829241071 0 0 0 0 0.829241071 0 0 0 0 0.829241071 0 0 0 0.305197011 0" in="shadowBlurOuter1" result="shadowMatrixOuter1"/><feMerge><feMergeNode in="shadowMatrixOuter1"/><feMergeNode in="SourceGraphic"/></feMerge></filter></defs><g filter="url(#a)" transform="translate(-12 -110)" fill="none" fill-rule="evenodd"><g transform="translate(12 110)"><circle fill="#E8E8E8" cx="11" cy="11" r="7"/><path d="M9.207 14.374h1.487v-1.442H9.207v1.442zm1.351-2.522H9.342v-.45c-.03-.871.36-1.577 1.17-2.117.842-.6 1.247-1.2 1.217-1.801-.09-.84-.57-1.291-1.441-1.352-1.051 0-1.711.601-1.982 1.801L7 7.62c.361-1.831 1.516-2.703 3.468-2.613 1.65.09 2.568.871 2.748 2.342.06.962-.496 1.802-1.667 2.522-.69.45-1.02.991-.99 1.622v.36z" fill="#0F3256"/><path d="M9.663 1.154c-4.692 0-8.509 3.817-8.509 8.509s3.817 8.509 8.509 8.509 8.509-3.817 8.509-8.509-3.817-8.509-8.509-8.509m0 18.171C4.335 19.325 0 14.991 0 9.663 0 4.335 4.335 0 9.663 0s9.663 4.335 9.663 9.663-4.335 9.662-9.663 9.662" fill="#0F3256"/></g></g></svg>