<svg width="16" height="18" xmlns="http://www.w3.org/2000/svg"><defs><filter x="-8.3%" y="-16.2%" width="116.6%" height="133.5%" filterUnits="objectBoundingBox" id="a"><feMorphology radius="1" operator="dilate" in="SourceAlpha" result="shadowSpreadOuter1"/><feOffset dy="1" in="shadowSpreadOuter1" result="shadowOffsetOuter1"/><feGaussianBlur stdDeviation="5" in="shadowOffsetOuter1" result="shadowBlurOuter1"/><feColorMatrix values="0 0 0 0 0.829241071 0 0 0 0 0.829241071 0 0 0 0 0.829241071 0 0 0 0.305197011 0" in="shadowBlurOuter1" result="shadowMatrixOuter1"/><feMerge><feMergeNode in="shadowMatrixOuter1"/><feMergeNode in="SourceGraphic"/></feMerge></filter></defs><g filter="url(#a)" transform="translate(-14 -31)" fill="none" fill-rule="evenodd"><path fill="#E8E8E8" d="M18.706 36.7H30v11.4H18.706z"/><path d="M28.56 48.04H15.18V33.806h2.831c.283.446.78.745 1.35.745h5.02c.569 0 1.066-.3 1.348-.745h2.831V48.04zm-9.2-15.476h5.02c.23 0 .415.184.415.41 0 .222-.19.41-.415.41h-5.02a.418.418 0 01-.414-.41c0-.226.185-.41.414-.41zm9.79.073h-3.213a1.592 1.592 0 00-1.557-1.24h-5.02c-.762 0-1.4.532-1.556 1.24H14.59a.587.587 0 00-.59.585v15.402c0 .323.264.585.59.585h14.56a.588.588 0 00.591-.585V33.222a.587.587 0 00-.59-.585z" fill="#0F3256"/><path d="M25.627 39.55h-7.253c-.337 0-.61.213-.61.475 0 .263.273.475.61.475h7.253c.336 0 .608-.212.608-.475 0-.262-.272-.475-.608-.475m0 3.8h-7.253c-.337 0-.61.213-.61.475s.273.475.61.475h7.253c.336 0 .608-.213.608-.475s-.272-.475-.608-.475" fill="#0F3256"/></g></svg>