<svg width="19" height="19" xmlns="http://www.w3.org/2000/svg"><defs><filter x="-8.3%" y="-16.2%" width="116.6%" height="133.5%" filterUnits="objectBoundingBox" id="a"><feMorphology radius="1" operator="dilate" in="SourceAlpha" result="shadowSpreadOuter1"/><feOffset dy="1" in="shadowSpreadOuter1" result="shadowOffsetOuter1"/><feGaussianBlur stdDeviation="5" in="shadowOffsetOuter1" result="shadowBlurOuter1"/><feColorMatrix values="0 0 0 0 0.829241071 0 0 0 0 0.829241071 0 0 0 0 0.829241071 0 0 0 0.305197011 0" in="shadowBlurOuter1" result="shadowMatrixOuter1"/><feMerge><feMergeNode in="shadowMatrixOuter1"/><feMergeNode in="SourceGraphic"/></feMerge></filter></defs><g filter="url(#a)" transform="translate(-190 -104)" fill="none" fill-rule="evenodd"><path fill="#E8E8E8" d="M195.706 109.7H207v12.985l-7.039-2.454-4.255.869z"/><path d="M199.05 119.411a.84.84 0 01.178.019l7.3 1.615v-15.546h-14.954v15.546l7.3-1.615a.834.834 0 01.177-.019m8.263 3.328a.792.792 0 01-.178-.02l-8.085-1.789-8.086 1.789a.82.82 0 01-.667-.143.736.736 0 01-.298-.587v-17.24c0-.413.353-.749.787-.749h16.527c.435 0 .787.336.787.75v17.239a.736.736 0 01-.297.587.816.816 0 01-.49.163" fill="#0F3256"/><path stroke="#0F3256" stroke-linecap="round" stroke-linejoin="round" d="M199 115.155l-2.351 1.081.301-2.57-1.754-1.902 2.537-.507L199 109l1.267 2.257 2.537.507-1.754 1.902.301 2.57z"/></g></svg>