<svg width="22" height="18" xmlns="http://www.w3.org/2000/svg"><defs><filter x="-8.3%" y="-16.2%" width="116.6%" height="133.5%" filterUnits="objectBoundingBox" id="a"><feMorphology radius="1" operator="dilate" in="SourceAlpha" result="shadowSpreadOuter1"/><feOffset dy="1" in="shadowSpreadOuter1" result="shadowOffsetOuter1"/><feGaussianBlur stdDeviation="5" in="shadowOffsetOuter1" result="shadowBlurOuter1"/><feColorMatrix values="0 0 0 0 0.829241071 0 0 0 0 0.829241071 0 0 0 0 0.829241071 0 0 0 0.305197011 0" in="shadowBlurOuter1" result="shadowMatrixOuter1"/><feMerge><feMergeNode in="shadowMatrixOuter1"/><feMergeNode in="SourceGraphic"/></feMerge></filter></defs><g filter="url(#a)" transform="translate(-190 -32)" fill="none" fill-rule="evenodd"><path d="M198.25 35.03h12.833c.215.485.215.855 0 1.112-.807.965-2.422 1.9-2.634 2.585-.557 1.802 1.158 5.085 2.634 5.085.957 0 .957 1.746 0 5.238H198.25V35.03z" fill="#E8E8E8"/><path d="M210.706 45.04v3.377h-19.412v-3.182c2.038-.45 3.559-2.287 3.559-4.421 0-2.134-1.521-3.972-3.559-4.422v-3.18h19.412v3.374a4.526 4.526 0 000 8.455m.809-7.356a.647.647 0 00.485-.627v-4.494a.646.646 0 00-.647-.647h-20.706a.647.647 0 00-.647.647v4.384c0 .337.258.616.595.645a3.25 3.25 0 012.964 3.221 3.25 3.25 0 01-2.964 3.22.649.649 0 00-.595.646v4.384c0 .357.29.647.647.647h20.706c.358 0 .647-.29.647-.647v-4.495c0-.295-.2-.553-.485-.626a3.23 3.23 0 010-6.257" fill="#0F3256"/><path d="M201 35.92a.646.646 0 00-.647.647v8.493a.647.647 0 101.294 0v-8.493a.646.646 0 00-.647-.647" fill="#0F3256"/></g></svg>