<svg width="26" height="25" xmlns="http://www.w3.org/2000/svg"><g fill="none" fill-rule="evenodd"><path d="M2.299 21.373a.897.897 0 00.898-.898v-8.542h4.856v8.542a.898.898 0 001.797 0V6.69h5.205v13.786a.898.898 0 001.797 0V1.795h5.907v18.68a.898.898 0 001.797 0V.898A.898.898 0 0023.657 0h-7.703a.898.898 0 00-.899.898v3.997H8.952a.898.898 0 00-.899.897v4.347H2.3a.897.897 0 00-.899.897v9.44c0 .496.402.897.899.897" fill="#0F3256"/><path d="M24.707 22.725H.898a.897.897 0 100 1.794h23.81a.898.898 0 100-1.794" fill="#3C64EE"/></g></svg>