<svg width="67" height="18" xmlns="http://www.w3.org/2000/svg"><path d="M21.875 12.768V3.264c0-.577.446-1.023 1.023-1.023h4.159c1.32 0 2.359.363 3.019 1.023.511.512.776 1.139.776 1.914v.033c0 1.386-.793 2.129-1.65 2.574 1.352.462 2.293 1.238 2.293 2.805v.033c0 2.063-1.7 3.168-4.274 3.168h-4.323a1.007 1.007 0 01-1.023-1.023zm1.997-5.66h2.772c1.304 0 2.178-.51 2.178-1.567v-.033c0-.907-.726-1.468-2.03-1.468h-2.92v3.069zm0 4.885h3.366c1.386 0 2.227-.545 2.227-1.584v-.033c0-.974-.775-1.551-2.375-1.551h-3.218v3.168zm13.563 4.471a7.527 7.527 0 01-3.366-.775c-.347-.132-.561-.413-.561-.792a.842.842 0 011.204-.743 5.327 5.327 0 002.673.693c1.782 0 2.756-.924 2.756-2.673v-.676c-.726.94-1.633 1.6-3.069 1.6-2.046 0-3.96-1.518-3.96-4.075V8.99c0-2.574 1.93-4.092 3.96-4.092 1.468 0 2.376.676 3.052 1.485V5.97c0-.544.446-.99.99-.99a1 1 0 011.007 1.007v6.022c0 1.469-.38 2.558-1.105 3.284-.792.792-2.014 1.171-3.581 1.171zM37.6 11.4c1.386 0 2.557-.974 2.557-2.393v-.033c0-1.419-1.171-2.392-2.557-2.392s-2.475.957-2.475 2.392v.033c0 1.42 1.105 2.393 2.475 2.393zm9.537 2.574c-1.633 0-3.086-.94-3.086-2.69v-.033c0-1.88 1.469-2.805 3.597-2.805.974 0 1.667.149 2.343.363v-.214c0-1.238-.758-1.898-2.161-1.898-.759 0-1.386.132-1.93.347a1.13 1.13 0 01-.314.05.831.831 0 01-.841-.826c0-.363.247-.676.544-.792a7.468 7.468 0 012.805-.511c1.303 0 2.277.346 2.887.973.644.627.941 1.551.941 2.69v4.29a.951.951 0 01-.973.957c-.578 0-.974-.396-.974-.842v-.33c-.594.71-1.502 1.27-2.838 1.27zm.561-1.452c1.32 0 2.327-.76 2.327-1.865v-.594a5.535 5.535 0 00-1.98-.346c-1.288 0-2.047.544-2.047 1.452v.033c0 .841.743 1.32 1.7 1.32zm6.584-9.686v-.099c0-.594.495-.973 1.138-.973.643 0 1.139.38 1.139.973v.1c0 .593-.495.99-1.139.99s-1.139-.397-1.139-.99zm.148 10.049V5.987a.986.986 0 01.99-1.007 1 1 0 011.006 1.007v6.897c0 .56-.445.99-1.006.99a.982.982 0 01-.99-.99zm4.603 0V5.987a.986.986 0 01.99-1.007 1 1 0 011.007 1.007v.429c.561-.809 1.37-1.518 2.722-1.518 1.964 0 3.102 1.32 3.102 3.333v4.653c0 .56-.428.99-.99.99a.986.986 0 01-1.006-.99V8.84c0-1.353-.677-2.128-1.865-2.128-1.154 0-1.963.808-1.963 2.161v4.01c0 .56-.446.99-1.007.99a.982.982 0 01-.99-.99zM.231 11.39l2.522-9.724a.29.29 0 00.006-.024c.024-.133.314-1.51 2.026-1.44h8.19s3.46-.122 3.712 2.937c0 0 .379 3.429-2.909 5.092 0 0-.037.017-.09.05l-.05.035a.519.519 0 00-.05.041c-.016.014-.032.037-.044.052a.152.152 0 00-.034.082s-.037.179.251.256c.01.002.03.01.04.011a4.09 4.09 0 011.233.655l.012.012c.111.1 2.146 1.917.499 5.11l-.014.029c-.129.235-1.822 3.178-6.297 3.218a.44.44 0 00-.019.001c-.241.016-5.194.305-4.626-2.285a.35.35 0 00.006-.036c.023-.203.316-2.266 3.366-5.299 0 0 .225-.235.381-.034a.303.303 0 01.051.12l.37 1.592a.49.49 0 00.054.141c.076.123.286.29.505-.015a.472.472 0 00.055-.104l2.633-7.956a.35.35 0 00.015-.066c.013-.111.01-.4-.41-.263a.325.325 0 00-.036.015l-7.52 3.374s-.479.214-.03.432c.02.01.04.017.06.022l1.576.438s.432.143.115.446c-.366.35-2.704 1.443-4.577 3.477a.688.688 0 01-.561.28.38.38 0 01-.224-.065C.294 11.913.13 11.73.23 11.39" fill="#FFF"/></svg>