<svg width="16" height="14" xmlns="http://www.w3.org/2000/svg" xmlns:xlink="http://www.w3.org/1999/xlink"><defs><path id="a" d="M.001.028h15.995V14H0z"/></defs><g fill="none" fill-rule="evenodd"><mask id="b" fill="#fff"><use xlink:href="#a"/></mask><path d="M15.403 14H.593C.264 14 0 13.66 0 13.242c0-.42.265-.759.592-.759h14.811c.327 0 .593.34.593.759 0 .418-.266.758-.593.758zm0-6.228H.593c-.328 0-.593-.34-.593-.758 0-.419.265-.759.592-.759h14.811c.327 0 .593.34.593.759s-.266.758-.593.758zm0-6.227H.593C.264 1.545 0 1.205 0 .786 0 .368.265.028.592.028h14.811c.327 0 .593.34.593.758 0 .42-.266.759-.593.759z" fill="#0F3256" mask="url(#b)"/></g></svg>