<svg width="18" height="16" xmlns="http://www.w3.org/2000/svg"><defs><linearGradient x1="0%" y1="50%" x2="115.591%" y2="50%" id="a"><stop stop-color="#829DFC" offset="0%"/><stop stop-color="#3C64EE" offset="100%"/></linearGradient></defs><path d="M.866 4.011c.583.305 1.372.555 2.367.73A18.93 18.93 0 006.5 5a18.93 18.93 0 003.267-.259c1.003-.175 1.784-.425 2.367-.73S13 3.373 13 3.004V1.996c0-.36-.283-.702-.866-1.007-.583-.305-1.372-.555-2.367-.73A18.93 18.93 0 006.5 0a18.93 18.93 0 00-3.267.259C2.247.453 1.449.684.866.989S0 1.636 0 1.996v1.008c0 .37.283.702.866 1.007zM6 9.195c-1.21-.008-2.338-.1-3.394-.3C1.502 8.693.641 8.392 0 8v1.195c0 .326.268.635.82.91.552.277 1.3.502 2.24.661.87.142 1.803.226 2.81.234a5.745 5.745 0 01-.024-.535c.008-.434.057-.86.154-1.27zm-3.408 2.697C1.494 11.692.638 11.392 0 11v1.2c0 .325.266.633.815.908.55.275 1.292.5 2.229.659.944.158 1.962.233 3.076.233.299 0 .597-.008.88-.017a5.502 5.502 0 01-.937-1.783 20.658 20.658 0 01-3.471-.308zM8 6.125c-.555.042-1.12.067-1.708.067-1.293 0-2.503-.109-3.63-.3C1.533 5.692.654 5.392 0 5v1.2c0 .325.274.633.837.908.564.275 1.327.5 2.288.659.97.158 2.015.233 3.159.233h.24A5.626 5.626 0 018 6.125zm7.535 1.34a4.996 4.996 0 00-7.07 0 4.996 4.996 0 000 7.07 4.996 4.996 0 007.07 0 4.996 4.996 0 000-7.07zm-2.227 4.843C12.74 12.875 12.288 13.47 12 14c-.288-.529-.74-1.125-1.308-1.692C10.125 11.74 9.53 11.288 9 11c.529-.288 1.125-.74 1.692-1.308C11.26 9.125 11.712 8.53 12 8c.289.529.74 1.125 1.308 1.692.567.568 1.163 1.02 1.692 1.308-.52.288-1.115.74-1.692 1.308z" fill="url(#a)" fill-rule="evenodd"/></svg>