<svg width="22" height="22" xmlns="http://www.w3.org/2000/svg"><g fill="#FFF" fill-rule="evenodd"><path d="M11 0C4.926 0 0 4.923 0 11c0 6.074 4.926 11 11 11s11-4.926 11-11S17.074 0 11 0zm0 20c-4.83 0-9-4.172-9-9.001C2 6.169 6.17 2 11 2s9 4.172 9 8.999C20.002 15.828 15.83 20 11 20z"/><path d="M10.132 14.997a19.267 19.267 0 01-.009-.478c0-.626.087-1.166.26-1.62.126-.342.33-.687.613-1.036.208-.253.58-.622 1.118-1.11.538-.486.887-.872 1.048-1.162.162-.289.242-.605.242-.947 0-.62-.236-1.162-.708-1.632-.473-.469-1.052-.702-1.737-.702-.663 0-1.216.213-1.66.638-.33.318-.578.77-.74 1.357a.738.738 0 01-.795.552h-.003a.88.88 0 01-.723-1.134c.22-.722.58-1.31 1.075-1.758.711-.643 1.65-.965 2.82-.965 1.238 0 2.223.345 2.96 1.036C14.632 6.726 15 7.56 15 8.538c0 .566-.13 1.089-.389 1.567-.26.478-.766 1.06-1.52 1.744-.508.46-.839.8-.995 1.018-.155.218-.27.469-.345.752-.075.283-.118.744-.13 1.381h-1.489v-.003zm-.095 2.11c0-.494.397-.893.884-.893a.89.89 0 01.885.893.889.889 0 01-.885.893.89.89 0 01-.884-.893z"/></g></svg>