<svg width="28" height="32" xmlns="http://www.w3.org/2000/svg"><g fill="none" fill-rule="evenodd"><path d="M1.778 17.931c.104.74 1.509 9.058 12.118 11.503C24.499 26.99 25.908 18.68 26.014 17.93V6.741c-5.788-.599-10.536-3.44-12.118-4.49-1.582 1.05-6.33 3.891-12.118 4.49v11.19zm12.118 13.166a.977.977 0 01-.207-.023c-6.418-1.416-9.797-4.863-11.5-7.506C.34 20.701.018 18.178.005 18.072a.683.683 0 01-.006-.09V5.992c0-.43.36-.787.827-.817C7.623 4.739 13.285.63 13.34.588a.95.95 0 011.11 0c.056.042 5.718 4.15 12.514 4.588.466.03.827.387.827.817v11.988c0 .03-.002.06-.005.09-.013.103-1.379 10.287-13.684 13.003a.976.976 0 01-.207.023z" fill="#0F3256"/><path d="M7.095 21.064l-1.336-1.08 4.697-4.932a.944.944 0 011.192-.121l3.448 2.317 4.287-5.42-3.508.506-.275-1.618 5.628-.813c.357-.052.708.1.896.382a.766.766 0 01-.04.91l-6.075 7.68a.942.942 0 01-1.242.18l-3.51-2.36-4.162 4.37z" fill="#3C64EE"/></g></svg>