<svg width="18" height="9" xmlns="http://www.w3.org/2000/svg" xmlns:xlink="http://www.w3.org/1999/xlink"><defs><path id="a" d="M0 0h17.986v8.371H0z"/></defs><g fill="none" fill-rule="evenodd"><mask id="b" fill="#fff"><use xlink:href="#a"/></mask><path d="M17.873 1.037a.692.692 0 00-.129-.902c-.289-.225-.674-.16-.901.13-.031.03-3.602 4.244-7.85 4.244C4.88 4.51 1.149.267 1.118.233A.654.654 0 00.215.17a.653.653 0 00-.064.901c.064.096.837.964 2.059 1.93L.57 4.705a.623.623 0 00.03.902c.065.129.225.194.385.194s.32-.065.45-.194l1.77-1.834a12.523 12.523 0 002.927 1.511l-.675 2.284a.642.642 0 00.45.803H6.1c.29 0 .548-.194.613-.483l.674-2.284a8.87 8.87 0 001.607.16c.545 0 1.093-.064 1.607-.16l.674 2.253c.065.29.354.483.613.483.064 0 .129 0 .16-.03a.64.64 0 00.45-.804l-.675-2.253a12.533 12.533 0 002.927-1.511l1.736 1.8c.13.13.29.194.45.194.16 0 .32-.064.45-.194a.65.65 0 00.03-.901l-1.64-1.705c1.325-.967 2.097-1.9 2.097-1.9" fill="#BBB" mask="url(#b)"/></g></svg>