<svg width="117" height="111" xmlns="http://www.w3.org/2000/svg"><defs><linearGradient x1="50%" y1="0%" x2="50%" y2="97.333%" id="a"><stop stop-color="#00D779" offset="0%"/><stop stop-color="#00B870" offset="100%"/></linearGradient></defs><g fill="none" fill-rule="evenodd"><ellipse fill="#F3F3F3" cx="58" cy="105.883" rx="31" ry="4.883"/><path fill="#2DCF79" opacity=".34" d="M77.764 0l2.335 4.27 4.27 2.336L80.1 8.94l-2.335 4.27-2.336-4.27-4.27-2.335 4.27-2.336z"/><path fill="#A9E8C8" d="M112.023 41.858l1.623 2.966 2.966 1.622-2.966 1.623-1.623 2.966-1.622-2.966-2.966-1.623 2.966-1.622z"/><path d="M21.62 21.215a3.36 3.36 0 11-5.82 3.362 3.361 3.361 0 115.82-3.362" fill="#C7F7DE"/><path fill="#ABE0C4" opacity=".476" d="M7.692 50.23l2.72 4.97 4.972 2.72-4.973 2.72-2.719 4.972-2.72-4.973L0 57.92l4.973-2.72z"/><path d="M88 56c0 16.569-13.431 30-30 30-16.569 0-30-13.431-30-30 0-16.569 13.431-30 30-30 16.569 0 30 13.431 30 30" fill="url(#a)"/><path d="M43.111 56.96l9.39 9.521a.563.563 0 00.754 0l20.55-19.759a.26.26 0 000-.39l-1.28-1.267a.331.331 0 00-.393 0L53.32 60.404a.728.728 0 01-.854 0l-7.649-5.687h-.197a.264.264 0 00-.197 0l-1.345 1.787a.323.323 0 00.032.455" fill="#FFF"/></g></svg>