<svg width="60" height="20" xmlns="http://www.w3.org/2000/svg"><g fill="none" fill-rule="evenodd"><path d="M2 .5A1.5 1.5 0 00.5 2v16A1.5 1.5 0 002 19.5h56a1.5 1.5 0 001.5-1.5V2A1.5 1.5 0 0058 .5H2z" stroke="#3C64EE"/><text font-family="Helvetica" font-size="12" fill="#3C64EE"><tspan x="22" y="16">USDT</tspan></text><path d="M18 9.671c0-.817-2.059-1.5-4.795-1.657V6.711h3.416V4H7.28v2.711h3.416v1.31C8.009 8.188 6 8.863 6 9.67c0 .808 2.01 1.483 4.696 1.65V16h2.509v-4.672C15.94 11.171 18 10.488 18 9.671zm-6 .806c-2.937 0-5.318-.492-5.318-1.098 0-.513 1.708-.944 4.014-1.064V9.89a21.622 21.622 0 002.51.006V8.31c2.355.113 4.112.548 4.112 1.07 0 .605-2.381 1.097-5.318 1.097z" fill="#3C64EE" fill-rule="nonzero"/></g></svg>