<svg width="17" height="16" xmlns="http://www.w3.org/2000/svg"><path d="M12.638 5.49c0-2.306-1.853-4.176-4.138-4.176-2.284 0-4.138 1.87-4.138 4.176S6.216 9.666 8.5 9.666c2.285 0 4.138-1.87 4.138-4.176zM17 15.339a.658.658 0 01-.655.661.658.658 0 01-.655-.661v-.357c0-1.653-3.337-3.993-7.164-3.993-3.043 0-7.216 1.966-7.216 3.923v.427A.658.658 0 01.655 16 .658.658 0 010 15.339v-.827c0-.992 1.457-3.532 5.431-4.472a5.52 5.52 0 01-2.38-4.54C3.052 2.462 5.492 0 8.502 0c3.008 0 5.447 2.462 5.447 5.499a5.512 5.512 0 01-2.31 4.49c4.017.904 5.362 3.575 5.362 4.523v.827z" fill="#0F3256" fill-rule="evenodd"/></svg>