<svg width="60" height="44" xmlns="http://www.w3.org/2000/svg"><path d="M25.012 26.928c-2.514 1.374-2.887-.77-2.887-.77l-3.15-7.206c-1.213-3.423 1.049-1.543 1.049-1.543s1.94 1.438 3.413 2.315c1.472.877 3.15.257 3.15.257l20.597-9.317C43.384 6.03 37.106 3 29.999 3 18.4 3 9 11.063 9 21.011c0 5.723 3.113 10.814 7.962 14.115l-.875 4.926s-.426 1.438 1.051.771c1.007-.454 3.573-2.085 5.1-3.076A24.029 24.029 0 0030 39.023c11.597 0 21-8.064 21-18.012 0-2.88-.792-5.602-2.196-8.017-6.562 3.869-21.826 12.861-23.792 13.934z" fill="#41B035" fill-rule="evenodd"/></svg>