<?xml version="1.0" encoding="UTF-8"?>
<svg width="375px" height="63px" viewBox="0 0 375 63" version="1.1" xmlns="http://www.w3.org/2000/svg" xmlns:xlink="http://www.w3.org/1999/xlink">
    <!-- Generator: Sketch 54.1 (76490) - https://sketchapp.com -->
    <title>编组 8</title>
    <desc>Created with Sketch.</desc>
    <defs>
        <linearGradient x1="24.1395833%" y1="47.6482866%" x2="47.4645833%" y2="50.7964298%" id="linearGradient-1">
            <stop stop-color="#EAF0FD" offset="0%"></stop>
            <stop stop-color="#EAF0FB" offset="100%"></stop>
        </linearGradient>
    </defs>
    <g id="页面1" stroke="none" stroke-width="1" fill="none" fill-rule="evenodd">
        <g id="M端-定期2复制" transform="translate(0.000000, -866.000000)">
            <g id="编组-5" transform="translate(0.000000, 866.000000)">
                <g id="编组-8">
                    <rect id="矩形" fill="url(#linearGradient-1)" x="0" y="0" width="375" height="63"></rect>
                    <rect id="矩形" fill="#3C64EE" x="22" y="10" width="43" height="43" rx="7"></rect>
                    <path d="M32.0416684,35.2587562 L35.4042435,21.9995069 C35.4072779,21.9883924 35.4095538,21.9774662 35.41164,21.9661633 C35.443502,21.7853168 35.8307765,19.9069624 38.1136483,20.0036023 L49.0328192,20.0036023 C49.0328192,20.0036023 53.6474936,19.8365077 53.9822339,24.0072796 C53.9822339,24.0072796 54.4878529,28.6834797 50.1043674,30.9508424 C50.1043674,30.9508424 50.0542986,30.9743901 49.9841264,31.0197901 C49.9609886,31.0346723 49.9448679,31.0476706 49.9171784,31.0672623 C49.8946095,31.0832748 49.8765923,31.0992872 49.849851,31.1235885 C49.8291786,31.142615 49.8077477,31.173698 49.791627,31.1938549 C49.760903,31.2322847 49.7523686,31.2677005 49.7470582,31.3055652 C49.7470582,31.3055652 49.6979377,31.549708 50.0819882,31.6546366 C50.094695,31.6580275 50.1214363,31.667635 50.1345225,31.6706491 C50.2644358,31.7004134 51.1267951,32.021981 51.7792067,32.5632018 C51.785086,32.5680997 51.789448,32.5739396 51.794948,32.5790259 C51.9426889,32.7171097 54.6558869,35.1933878 52.4594976,39.5482086 C52.4530493,39.5610186 52.4475493,39.5743937 52.4407218,39.5872037 C52.2696534,39.9082062 50.011816,43.9214909 44.0456632,43.9759332 C44.0371288,43.9761216 44.028784,43.97631 44.0202495,43.9768752 C43.6985954,43.9981623 37.0952034,44.3922569 37.852494,40.8606643 C37.8560975,40.8442751 37.8587526,40.8278859 37.8606492,40.8113083 C37.8900456,40.5343871 38.2816823,37.722036 42.3486344,33.5863031 C42.3486344,33.5863031 42.6480989,33.2660541 42.8559603,33.5401495 C42.8919946,33.5878101 42.9117187,33.6458317 42.9246152,33.70423 L43.4165791,35.8734459 C43.4308032,35.9388143 43.4577341,36.0128484 43.4899754,36.0663488 C43.5910613,36.2345737 43.8706121,36.4608202 44.1621111,36.0454384 C44.1915076,36.0036177 44.2140765,35.9597247 44.2356971,35.9047172 L47.7463924,25.0546821 C47.7556855,25.0252945 47.7627027,24.9953418 47.7663061,24.9646356 C47.783944,24.8129883 47.7799613,24.4202124 47.221239,24.6068987 C47.2045494,24.6123617 47.1878598,24.6191435 47.1719288,24.6266788 L37.1441343,29.2275262 C37.1441343,29.2275262 36.5072743,29.5195179 37.1056344,29.8173494 C37.1308585,29.8301594 37.1577894,29.8397669 37.1850997,29.8474905 L39.2872307,30.4439071 C39.2872307,30.4439071 39.8622632,30.6396358 39.4402819,31.0521918 C38.9523007,31.5291744 35.8341903,33.0205927 33.3375779,35.7937604 C33.3265779,35.8058168 33.3163366,35.8184384 33.3066642,35.8314367 C33.2577333,35.8981239 33.0364065,36.16167 32.5893907,36.1748567 C32.4829945,36.1780592 32.3777362,36.1473529 32.2904951,36.086694 C32.1251164,35.9715928 31.9077722,35.7242475 32.0416684,35.2587562" id="Fill-1" fill="#FFFFFF"></path>
                    <text id="全球最专业的数字货币理财平台" font-family="PingFangSC-Regular, PingFang SC" font-size="13" font-weight="normal" letter-spacing="-0.100000001" fill="#8D96BC">
                        <tspan x="79" y="46">全球最专业的数字货币理财平</tspan>
                        <tspan x="246.7" y="46" letter-spacing="-0.1083333">台</tspan>
                    </text>
                    <text id="BGAIN" font-family="PingFangSC-Medium, PingFang SC" font-size="16" font-weight="400" letter-spacing="-0.1230769" fill="#465BAB">
                        <tspan x="79" y="28">BGAIN</tspan>
                    </text>
                </g>
            </g>
        </g>
    </g>
</svg>