<?xml version="1.0" encoding="UTF-8"?>
<svg width="375px" height="193px" viewBox="0 0 375 193" version="1.1" xmlns="http://www.w3.org/2000/svg" xmlns:xlink="http://www.w3.org/1999/xlink">
    <!-- Generator: Sketch 55.2 (78181) - https://sketchapp.com -->
    <title>会员</title>
    <desc>Created with Sketch.</desc>
    <defs>
        <filter x="-15.2%" y="-42.5%" width="130.5%" height="185.0%" filterUnits="objectBoundingBox" id="filter-1">
            <feGaussianBlur stdDeviation="16" in="SourceGraphic"></feGaussianBlur>
        </filter>
        <linearGradient x1="0%" y1="41.2675429%" x2="98.4141791%" y2="58.7324571%" id="linearGradient-2">
            <stop stop-color="#5388F6" offset="0%"></stop>
            <stop stop-color="#4A51DA" offset="100%"></stop>
        </linearGradient>
        <path d="M6,0 L329,0 C332.313708,-6.08718376e-16 335,2.6862915 335,6 L335,134 C335,137.313708 332.313708,140 329,140 L6,140 C2.6862915,140 4.05812251e-16,137.313708 0,134 L0,6 C-4.05812251e-16,2.6862915 2.6862915,6.08718376e-16 6,0 Z" id="path-3"></path>
        <linearGradient x1="26.767073%" y1="4.54017376%" x2="82.8158675%" y2="71.7638739%" id="linearGradient-5">
            <stop stop-color="#5A8EFC" offset="0%"></stop>
            <stop stop-color="#4B57DD" offset="100%"></stop>
        </linearGradient>
        <linearGradient x1="24.6858016%" y1="5.82965353%" x2="65.2938179%" y2="80.7787024%" id="linearGradient-6">
            <stop stop-color="#5178EF" offset="0%"></stop>
            <stop stop-color="#5178EF" stop-opacity="0" offset="100%"></stop>
        </linearGradient>
        <linearGradient x1="50%" y1="0%" x2="50%" y2="61.3135805%" id="linearGradient-7">
            <stop stop-color="#4C67E5" offset="0%"></stop>
            <stop stop-color="#4E68E6" stop-opacity="0" offset="100%"></stop>
        </linearGradient>
    </defs>
    <g id="页面1" stroke="none" stroke-width="1" fill="none" fill-rule="evenodd">
        <g id="M端_活动中心_未登录" transform="translate(0.000000, -52.000000)">
            <g id="会员" transform="translate(20.000000, 74.000000)">
                <polygon id="矩形" fill="#272ED2" filter="url(#filter-1)" points="10 18 325 18 325 131 10 131"></polygon>
                <mask id="mask-4" fill="white">
                    <use xlink:href="#path-3"></use>
                </mask>
                <use id="Mask" fill="url(#linearGradient-2)" xlink:href="#path-3"></use>
                <circle id="椭圆形" fill="url(#linearGradient-5)" mask="url(#mask-4)" cx="46" cy="131" r="71"></circle>
                <circle id="椭圆形备份" fill="url(#linearGradient-6)" mask="url(#mask-4)" cx="196" cy="29" r="23"></circle>
                <circle id="椭圆形备份-2" fill="url(#linearGradient-7)" mask="url(#mask-4)" cx="314" cy="136" r="47"></circle>
            </g>
        </g>
    </g>
</svg>