<?xml version="1.0" encoding="UTF-8"?>
<svg width="345px" height="80px" viewBox="0 0 345 80" version="1.1" xmlns="http://www.w3.org/2000/svg" xmlns:xlink="http://www.w3.org/1999/xlink">
    <!-- Generator: Sketch 55.2 (78181) - https://sketchapp.com -->
    <title>快速获取背景@1x</title>
    <desc>Created with Sketch.</desc>
    <defs>
        <linearGradient x1="3.75905797%" y1="50%" x2="100%" y2="50%" id="linearGradient-1">
            <stop stop-color="#FFFFFF" offset="0%"></stop>
            <stop stop-color="#EBF0FF" offset="100%"></stop>
        </linearGradient>
        <rect id="path-2" x="0" y="0" width="345" height="80"></rect>
    </defs>
    <g id="页面1" stroke="none" stroke-width="1" fill="none" fill-rule="evenodd">
        <g id="M端_会员权益_至尊会员" transform="translate(-15.000000, -631.000000)">
            <g id="获取会员值" transform="translate(15.000000, 631.000000)">
                <g id="Fill-1">
                    <mask id="mask-3" fill="white">
                        <use xlink:href="#path-2"></use>
                    </mask>
                    <use id="Mask" fill="url(#linearGradient-1)" xlink:href="#path-2"></use>
                    <path d="M48.181557,79.3086514 L14.8049495,93.0443613 L-13.4133626,64.8350751 L0.327424368,31.4674935 C-1.89407244,28.8409599 -1.73555527,24.9519302 0.691280499,22.5143762 C3.29073639,19.9216897 7.49792867,19.9216897 10.0968204,22.5143762 C12.690071,25.113268 12.690071,29.3210244 10.0968204,31.9199161 C9.13669155,32.8794809 7.90522189,33.520319 6.56769803,33.7561203 C5.60362032,38.0400327 6.7544211,42.6973911 10.0968204,46.0290722 C14.4805817,50.4100129 21.1225074,51.0491586 26.2238267,48.0424095 L26.6869676,47.7174775 L31.9044953,43.0223231 C31.2850937,40.7365169 31.9327012,38.2933217 33.6047471,36.6150705 C36.2047671,34.0212558 40.4125235,34.0212558 43.0119794,36.6150705 C45.6063582,39.2128341 45.6063582,43.4200263 43.0119794,46.0177899 C41.3348564,47.6915281 38.8899689,48.3402638 36.6041626,47.7174775 L31.8853153,52.7680262 L31.5801274,53.407172 C28.5824042,58.5062349 29.2215499,65.1577506 33.5957212,69.5319218 C36.9381205,72.8720647 41.5870172,74.020609 45.8709295,73.0587877 C46.1084232,71.7229562 46.7503895,70.4920507 47.7093902,69.5319218 C50.322949,67.0368277 54.4500366,67.0842136 57.0060554,69.6391042 C59.5609459,72.1934307 59.6094601,76.3210823 57.114366,78.9352053 C54.6880944,81.3902469 50.7945517,81.4979935 48.181557,79.3086514" fill-opacity="0.12" fill="#3D64EE" mask="url(#mask-3)" transform="translate(22.770524, 56.807111) rotate(-16.000000) translate(-22.770524, -56.807111) "></path>
                </g>
            </g>
        </g>
    </g>
</svg>