<?xml version="1.0" encoding="UTF-8"?>
<svg width="42px" height="40px" viewBox="0 0 42 40" version="1.1" xmlns="http://www.w3.org/2000/svg" xmlns:xlink="http://www.w3.org/1999/xlink">
    <!-- Generator: Sketch 54.1 (76490) - https://sketchapp.com -->
    <title>邀友返利</title>
    <desc>Created with Sketch.</desc>
    <defs>
        <polygon id="path-1" points="0.000196721311 0.163934426 41.6393443 0.163934426 41.6393443 11.3114754 0.000196721311 11.3114754"></polygon>
        <polygon id="path-3" points="0 39.9881967 41.6393443 39.9881967 41.6393443 0 0 0"></polygon>
    </defs>
    <g id="页面1" stroke="none" stroke-width="1" fill="none" fill-rule="evenodd">
        <g id="M端首页-未登录3复制" transform="translate(-41.000000, -335.000000)">
            <g id="编组-2" transform="translate(34.000000, 335.000000)">
                <g id="邀友返利" transform="translate(7.000000, 0.000000)">
                    <path d="M37.1977705,39.9337705 L5.13678689,39.9337705 C4.29154098,39.9337705 3.60629508,39.2485246 3.60629508,38.4032787 L3.60629508,17.8570492 C3.60629508,17.0118033 4.29154098,16.3272131 5.13678689,16.3272131 L37.1977705,16.3272131 C38.0430164,16.3272131 38.7282623,17.0118033 38.7282623,17.8570492 L38.7282623,38.4032787 C38.7282623,39.2485246 38.0430164,39.9337705 37.1977705,39.9337705" id="Fill-1" fill="#2955E7"></path>
                    <g id="编组" transform="translate(0.000000, 7.201311)">
                        <mask id="mask-2" fill="white">
                            <use xlink:href="#path-1"></use>
                        </mask>
                        <g id="Clip-4"></g>
                        <path d="M40.6329836,11.3114754 L1.00609836,11.3114754 C0.450688525,11.3114754 0.000196721311,10.8609836 0.000196721311,10.304918 L0.000196721311,1.1704918 C0.000196721311,0.61442623 0.450688525,0.163934426 1.00609836,0.163934426 L40.6329836,0.163934426 C41.1890492,0.163934426 41.639541,0.61442623 41.639541,1.1704918 L41.639541,10.304918 C41.639541,10.8609836 41.1890492,11.3114754 40.6329836,11.3114754" id="Fill-3" fill="#73B3F5" mask="url(#mask-2)"></path>
                    </g>
                    <mask id="mask-4" fill="white">
                        <use xlink:href="#path-3"></use>
                    </mask>
                    <g id="Clip-6"></g>
                    <polygon id="Fill-5" fill="#FFFFFF" mask="url(#mask-4)" points="19.5081967 39.9881967 22.4747541 39.9881967 22.4747541 7.32131148 19.5081967 7.32131148"></polygon>
                    <path d="M20.764918,7.52918033 C20.764918,7.52918033 27.6501639,-1.81508197 33.5518033,0.316065574 C33.5518033,0.316065574 37.1583607,2.44721311 34.5354098,7.3652459 C34.5354098,7.3652459 20.4370492,7.20131148 20.764918,7.52918033" id="Fill-7" fill="#C9E8FD" mask="url(#mask-4)"></path>
                    <path d="M21.2781639,7.52918033 C21.2781639,7.52918033 14.392918,-1.81508197 8.49127869,0.316065574 C8.49127869,0.316065574 4.88472131,2.44721311 7.50767213,7.3652459 C7.50767213,7.3652459 21.6060328,7.20131148 21.2781639,7.52918033" id="Fill-8" fill="#C9E8FD" mask="url(#mask-4)"></path>
                </g>
            </g>
        </g>
    </g>
</svg>