<?xml version="1.0" encoding="UTF-8"?>
<svg width="48px" height="42px" viewBox="0 0 48 42" version="1.1" xmlns="http://www.w3.org/2000/svg" xmlns:xlink="http://www.w3.org/1999/xlink">
    <!-- Generator: Sketch 54.1 (76490) - https://sketchapp.com -->
    <title>快速充币</title>
    <desc>Created with Sketch.</desc>
    <defs>
        <polygon id="path-1" points="0 42 48 42 48 0 0 0"></polygon>
    </defs>
    <g id="页面1" stroke="none" stroke-width="1" fill="none" fill-rule="evenodd">
        <g id="M端首页-未登录3复制" transform="translate(-166.000000, -335.000000)">
            <g id="编组-2" transform="translate(34.000000, 335.000000)">
                <g id="快速充币" transform="translate(132.000000, 0.000000)">
                    <path d="M42,21 C42,32.5983636 32.5983636,42 21,42 C9.40163636,42 0,32.5983636 0,21 C0,9.40163636 9.40163636,0 21,0 C32.5983636,0 42,9.40163636 42,21" id="Fill-1" fill="#73B3F5"></path>
                    <path d="M36.8571429,20.5714286 C36.8571429,29.5655413 29.5653998,36.8571429 20.5711126,36.8571429 C11.5774573,36.8571429 4.28571429,29.5655413 4.28571429,20.5714286 C4.28571429,11.5773158 11.5774573,4.28571429 20.5711126,4.28571429 C29.5653998,4.28571429 36.8571429,11.5773158 36.8571429,20.5714286" id="Fill-3" fill="#2955E7"></path>
                    <path d="M24.1334477,25.3077265 L18.1126754,25.3077265 L18.1126754,21.1726556 L24.1334477,21.1726556 C25.2877021,21.1726556 26.1924561,22.1163993 26.1924561,23.2481297 C26.1924561,24.37986 25.2561995,25.3077265 24.1334477,25.3077265 L24.1334477,25.3077265 Z M18.0969241,15.1354901 L23.1354461,15.1354901 C24.2897005,15.1354901 25.1938244,16.0792338 25.1938244,17.2109642 C25.1938244,18.3744491 24.2581979,19.2864383 23.1354461,19.2864383 L18.0969241,19.2864383 L18.0969241,15.1354901 Z M26.6599543,19.7417978 C27.1589551,19.0190654 27.4557094,18.1381956 27.4557094,17.1798448 C27.4557094,14.8687523 25.7394491,12.9818999 23.6344469,12.9818999 L23.0258172,12.9818999 L23.0258172,9.75881822 C23.0258172,9.5701965 22.8859457,9.42857143 22.6981904,9.42857143 L21.5754386,9.42857143 C21.3883133,9.42857143 21.2478118,9.5701965 21.2478118,9.75881822 L21.2478118,12.9818999 L19.4540551,12.9818999 L19.4540551,9.75881822 C19.4540551,9.5701965 19.3141836,9.42857143 19.1264283,9.42857143 L18.0351791,9.42857143 C17.8474237,9.42857143 17.7075523,9.5701965 17.7075523,9.75881822 L17.7075523,12.9818999 L14.0419125,12.9818999 C13.8547872,12.9818999 13.7142857,13.1228899 13.7142857,13.3121467 L13.7142857,14.4749965 C13.7142857,14.6483761 13.8547872,14.8052433 14.01104,14.8052433 C15.2742933,14.915749 15.9295469,15.7648643 15.9295469,16.7867241 L15.9295469,23.7041243 C15.9295469,24.6472329 15.4614186,25.3858426 14.4010419,25.4645937 C14.2605404,25.4963482 14.1200389,25.5750994 14.1049177,25.7478439 L13.8862898,26.8802093 C13.8547872,27.068196 13.9952887,27.2726949 14.2132865,27.2726949 L17.691801,27.2726949 L17.691801,30.4957767 C17.691801,30.6843984 17.8323025,30.8253884 18.0194278,30.8253884 L19.1113071,30.8253884 C19.2984324,30.8253884 19.4383038,30.6843984 19.4383038,30.4957767 L19.4383038,27.3044494 L21.2169392,27.3044494 L21.2169392,30.5275312 C21.2169392,30.7161529 21.3568107,30.8571429 21.544566,30.8571429 L22.6364453,30.8571429 C22.8229406,30.8571429 22.9634421,30.7161529 22.9634421,30.5275312 L22.9634421,27.3044494 L24.4610745,27.3044494 C26.5667067,27.3044494 28.281707,25.4645937 28.281707,23.1693785 C28.3447121,21.754398 27.658586,20.4810426 26.6599543,19.7417978 L26.6599543,19.7417978 Z" id="Fill-5" fill="#FFFFFF"></path>
                    <path d="M48,31.2857143 C48,36.2563424 43.9707717,40.2857143 39.0003208,40.2857143 C34.0298699,40.2857143 30,36.2563424 30,31.2857143 C30,26.3150862 34.0298699,22.2857143 39.0003208,22.2857143 C43.9707717,22.2857143 48,26.3150862 48,31.2857143" id="Fill-7" fill="#C9E8FD"></path>
                    <mask id="mask-2" fill="white">
                        <use xlink:href="#path-1"></use>
                    </mask>
                    <g id="Clip-10"></g>
                    <polygon id="Fill-9" fill="#2955E7" mask="url(#mask-2)" points="37.7142857 36.8571429 39.4285714 36.8571429 39.4285714 25.7142857 37.7142857 25.7142857"></polygon>
                    <polygon id="Fill-11" fill="#2955E7" mask="url(#mask-2)" points="33.4285714 32.5714286 44.5714286 32.5714286 44.5714286 30.8571429 33.4285714 30.8571429"></polygon>
                </g>
            </g>
        </g>
    </g>
</svg>